<?xml version="1.0" encoding="UTF-8"?>
<svg version="1.1" xmlns="http://www.w3.org/2000/svg" width="39" height="39">
<path d="M0 0 C3.96 0 7.92 0 12 0 C12.33 0.99 12.66 1.98 13 3 C13.72960938 3.5775 14.45921875 4.155 15.2109375 4.75 C18.59638372 7.48111628 21.0022131 10.55579083 23.625 14 C24.10195313 14.61617187 24.57890625 15.23234375 25.0703125 15.8671875 C27.40711096 18.89204328 29.70645954 21.94194605 32 25 C32.33 18.4 32.66 11.8 33 5 C32.34 4.67 31.68 4.34 31 4 C29.66666667 3.33333333 28.33333333 2.66666667 27 2 C27 1.34 27 0.68 27 0 C30.96 0 34.92 0 39 0 C39 0.99 39 1.98 39 3 C37.68 3.33 36.36 3.66 35 4 C35 15.55 35 27.1 35 39 C30.68748685 37.92187171 30.35651828 37.65670577 28 34.25 C27.48566406 33.52683594 26.97132812 32.80367187 26.44140625 32.05859375 C25.96574219 31.37925781 25.49007813 30.69992188 25 30 C23.01932019 27.41911418 21.08277743 25.08047806 18.75 22.8125 C14.82544239 18.7987479 11.47050008 14.41165264 8 10 C7.67 17.92 7.34 25.84 7 34 C8.34189957 34.67094978 9.69668689 35.31667586 11.0625 35.9375 C13 37 13 37 14 39 C9.38 39 4.76 39 0 39 C1 36 1 36 2.54199219 34.70703125 C4.73797885 32.13597654 4.35546897 30.01780665 4.328125 26.6875 C4.32296875 25.44742187 4.3178125 24.20734375 4.3125 22.9296875 C4.2815625 20.98449219 4.2815625 20.98449219 4.25 19 C4.24484375 17.70320313 4.2396875 16.40640625 4.234375 15.0703125 C4.3210433 8.42953824 4.3210433 8.42953824 3 2 C2.01 2 1.02 2 0 2 C0 1.34 0 0.68 0 0 Z " fill="#CDB97B" transform="translate(0,0)"/>
<path d="M0 0 C0.12375 0.639375 0.2475 1.27875 0.375 1.9375 C0.684375 2.9584375 0.684375 2.9584375 1 4 C1.66 4.33 2.32 4.66 3 5 C2.67 13.25 2.34 21.5 2 30 C3.34189957 30.67094978 4.69668689 31.31667586 6.0625 31.9375 C8 33 8 33 9 35 C4.38 35 -0.24 35 -5 35 C-4 32 -4 32 -2.45361328 30.71142578 C-0.24964554 28.11656286 -0.67795206 25.96633892 -0.7421875 22.6171875 C-0.75636719 21.36808594 -0.77054687 20.11898438 -0.78515625 18.83203125 C-0.82962891 16.87330078 -0.82962891 16.87330078 -0.875 14.875 C-0.91814017 12.28912731 -0.95742226 9.70318634 -0.9921875 7.1171875 C-1.01651855 5.96847168 -1.04084961 4.81975586 -1.06591797 3.63623047 C-1 1 -1 1 0 0 Z " fill="#D0C08B" transform="translate(5,4)"/>
<path d="M0 0 C3.96 0 7.92 0 12 0 C12 0.99 12 1.98 12 3 C10.68 3.33 9.36 3.66 8 4 C8 15.55 8 27.1 8 39 C7.01 38.67 6.02 38.34 5 38 C5.66 38 6.32 38 7 38 C7 27.11 7 16.22 7 5 C6.01 4.67 5.02 4.34 4 4 C2.65909241 3.34870203 1.32407669 2.68486725 0 2 C0 1.34 0 0.68 0 0 Z " fill="#D7CEAF" transform="translate(27,0)"/>
<path d="M0 0 C0 0.66 0 1.32 0 2 C1.65 2.33 3.3 2.66 5 3 C5.33 2.34 5.66 1.68 6 1 C6.99 1.99 7.98 2.98 9 4 C4.38 4 -0.24 4 -5 4 C-4.67 3.01 -4.34 2.02 -4 1 C-2 0 -2 0 0 0 Z " fill="#E2DCC5" transform="translate(5,35)"/>
<path d="" fill="#FEFEFE" transform="translate(0,0)"/>
<path d="" fill="#FDFDFD" transform="translate(0,0)"/>
<path d="" fill="#FDFDFD" transform="translate(0,0)"/>
<path d="" fill="#FEFEFE" transform="translate(0,0)"/>
<path d="" fill="#FEFEFE" transform="translate(0,0)"/>
</svg>
