<?xml version="1.0" encoding="UTF-8"?>
<svg version="1.1" xmlns="http://www.w3.org/2000/svg" width="181" height="93">
<path d="M0 0 C5.39116677 -0.32347001 8.28351331 0.49821141 13 3 C15.05840147 3.96710518 17.12105414 4.92520501 19.1875 5.875 C20.32316406 6.39707031 21.45882812 6.91914062 22.62890625 7.45703125 C26.51787574 9.23703467 30.40932689 11.01137123 34.3046875 12.77734375 C36.16515451 13.62129473 38.02446013 14.46780903 39.8828125 15.31640625 C40.82898438 15.74824219 41.77515625 16.18007813 42.75 16.625 C43.65234375 17.03878906 44.5546875 17.45257812 45.484375 17.87890625 C47.63815661 18.83874371 49.80315332 19.70868354 52 20.5625 C56.81568088 22.87001376 56.81568088 22.87001376 58 26 C57.16540212 28.89654559 56.2577827 31.29386147 55 34 C54.6596875 34.7734375 54.319375 35.546875 53.96875 36.34375 C53.29243578 37.88082778 52.60907055 39.41482652 51.91796875 40.9453125 C50.87855246 43.27183578 49.91982703 45.62378018 49 48 C48.34 48 47.68 48 47 48 C46.938125 48.94875 46.87625 49.8975 46.8125 50.875 C46.20583962 55.22712883 44.29216952 58.67198074 42.26171875 62.5234375 C40.85307867 65.28838429 39.78955107 68.07435667 38.75 70.9921875 C37.61188063 74.03902789 36.25602877 76.98209913 34.91796875 79.9453125 C33.87855246 82.27183578 32.91982703 84.62378018 32 87 C31.34 87 30.68 87 30 87 C30 88.65 30 90.3 30 92 C26.83461036 93.0143635 24.72075879 92.95408471 21.5 92.1875 C20.37078125 91.93033203 20.37078125 91.93033203 19.21875 91.66796875 C16.98375948 90.99511069 15.05142661 90.10497297 13 89 C13 88.34 13 87.68 13 87 C11.5459375 86.9071875 11.5459375 86.9071875 10.0625 86.8125 C5.85185963 86.23289768 2.75182544 84.34127687 -0.86328125 82.19921875 C-3.47247694 80.73482555 -6.15537864 79.9051068 -9 79 C-10.66666667 78 -12.33333333 77 -14 76 C-14.99 75.67 -15.98 75.34 -17 75 C-20.0004856 73.99983813 -22.32521756 72.6627026 -25 71 C-25.99 70.67 -26.98 70.34 -28 70 C-29.09726196 60.34409476 -23.38925288 51.63765283 -19.12109375 43.30078125 C-17.7968226 40.58302616 -16.75440464 37.8244789 -15.73828125 34.98046875 C-14.65909492 32.08550858 -13.37130998 29.29412966 -12.09765625 26.48046875 C-10.86513547 23.69523496 -9.71416189 20.88208601 -8.5625 18.0625 C-6.29117798 12.5705418 -3.73222218 7.27529051 -1 2 C-0.67 1.34 -0.34 0.68 0 0 Z M4 3 C3.566875 3.9590625 3.566875 3.9590625 3.125 4.9375 C2 7 2 7 0 8 C-1.15811388 10.94729537 -1.15811388 10.94729537 -1 14 C-1.99 14.495 -1.99 14.495 -3 15 C-4.24174796 16.9001177 -4.24174796 16.9001177 -5 19 C-4.67 19.66 -4.34 20.32 -4 21 C-4.66 21.33 -5.32 21.66 -6 22 C-7.88186002 25.0318856 -8 26.24517355 -8 30 C-8.66 30.33 -9.32 30.66 -10 31 C-11.15811388 33.94729537 -11.15811388 33.94729537 -11 37 C-11.99 37.495 -11.99 37.495 -13 38 C-14.88186002 41.0318856 -15 42.24517355 -15 46 C-15.99 46.495 -15.99 46.495 -17 47 C-18.15811388 49.94729537 -18.15811388 49.94729537 -18 53 C-18.99 53.495 -18.99 53.495 -20 54 C-21.24174796 55.9001177 -21.24174796 55.9001177 -22 58 C-21.67 58.66 -21.34 59.32 -21 60 C-21.99 60.495 -21.99 60.495 -23 61 C-24.24714403 63.40952023 -24.24714403 63.40952023 -25 66 C-24.67 66.66 -24.34 67.32 -24 68 C-21.05270463 69.15811388 -21.05270463 69.15811388 -18 69 C-17.67 69.66 -17.34 70.32 -17 71 C-13.28530176 73.1462701 -11.35855288 74 -7 74 C-6.505 74.99 -6.505 74.99 -6 76 C-1.98214359 78.33596303 1.45588378 79.26026015 6 80 C6.495 80.99 6.495 80.99 7 82 C9.59019905 83.22314955 11.92869793 83.98703599 14.75 84.5 C15.4925 84.665 16.235 84.83 17 85 C17.33 85.66 17.66 86.32 18 87 C20.6852464 88.37891032 22.29776859 89.11387536 25.3125 88.625 C26.1478125 88.315625 26.1478125 88.315625 27 88 C27 87.01 27 86.02 27 85 C27.66 84.67 28.32 84.34 29 84 C30.24174796 82.0998823 30.24174796 82.0998823 31 80 C30.67 79.34 30.34 78.68 30 78 C30.66 77.67 31.32 77.34 32 77 C33.3749149 74.09740189 34 72.23861295 34 69 C34.66 68.67 35.32 68.34 36 68 C37.15811388 65.05270463 37.15811388 65.05270463 37 62 C37.66 61.67 38.32 61.34 39 61 C40.3749149 58.09740189 41 56.23861295 41 53 C41.66 52.67 42.32 52.34 43 52 C44.15811388 49.05270463 44.15811388 49.05270463 44 46 C44.66 45.67 45.32 45.34 46 45 C47.24174796 43.0998823 47.24174796 43.0998823 48 41 C47.67 40.34 47.34 39.68 47 39 C47.66 38.67 48.32 38.34 49 38 C50.3749149 35.09740189 51 33.23861295 51 30 C51.99 29.505 51.99 29.505 53 29 C53 28.01 53 27.02 53 26 C52.34 26 51.68 26 51 26 C50.505 25.01 50.505 25.01 50 24 C46.28530176 21.8537299 44.35855288 21 40 21 C39.505 20.01 39.505 20.01 39 19 C35.28530176 16.8537299 33.35855288 16 29 16 C28.505 15.01 28.505 15.01 28 14 C23.98214359 11.66403697 20.54411622 10.73973985 16 10 C15.505 9.01 15.505 9.01 15 8 C12.40980095 6.77685045 10.07130207 6.01296401 7.25 5.5 C6.13625 5.2525 6.13625 5.2525 5 5 C4.67 4.34 4.34 3.68 4 3 Z " fill="#726230" transform="translate(28,0)"/>
<path d="M0 0 C0.495 11.88 0.495 11.88 1 24 C2.32 22.68 3.64 21.36 5 20 C5.66 20 6.32 20 7 20 C7 19.34 7 18.68 7 18 C5.68 18 4.36 18 3 18 C3 17.01 3 16.02 3 15 C7.29 15 11.58 15 16 15 C13.28412721 17.71587279 11.00351596 19.77158493 8 22 C6.98198643 22.98165594 5.9753197 23.97591432 5 25 C5.99 25.33 6.98 25.66 8 26 C9.68359375 27.7421875 9.68359375 27.7421875 11.4375 29.875 C14.26413414 33.30237294 16.99740187 35.99870094 21 38 C21 38.66 21 39.32 21 40 C16.05 40 11.1 40 6 40 C6 39.34 6 38.68 6 38 C6.66 38 7.32 38 8 38 C7.23883449 36.84772177 6.46567307 35.7033614 5.6875 34.5625 C5.25824219 33.92441406 4.82898438 33.28632812 4.38671875 32.62890625 C2.9965948 30.7114316 2.9965948 30.7114316 0 30 C0.495 33.465 0.495 33.465 1 37 C1.99 37.33 2.98 37.66 4 38 C4 38.66 4 39.32 4 40 C3.2886792 39.99476318 2.5773584 39.98952637 1.84448242 39.98413086 C-1.37450275 39.96335982 -4.59347383 39.95033942 -7.8125 39.9375 C-8.93205078 39.92912109 -10.05160156 39.92074219 -11.20507812 39.91210938 C-12.27822266 39.90888672 -13.35136719 39.90566406 -14.45703125 39.90234375 C-15.9416687 39.89448853 -15.9416687 39.89448853 -17.45629883 39.88647461 C-20.12392734 39.88930041 -20.12392734 39.88930041 -23 41 C-26.60172932 41.38316269 -28.3488746 41.44550685 -31.375 39.375 C-33.47464453 36.30628876 -33.62060815 34.64607289 -33 31 C-30.08393393 27.85064864 -25.95310144 26.50936601 -22 25 C-21.01 25 -20.02 25 -19 25 C-19 23.02 -19 21.04 -19 19 C-21.29294488 18.14025199 -21.29294488 18.14025199 -24 18 C-26.33454661 19.83358335 -26.33454661 19.83358335 -28 22 C-29.32 21.34 -30.64 20.68 -32 20 C-31.34 18.35 -30.68 16.7 -30 15 C-27.89611431 14.94597726 -25.79183286 14.90719744 -23.6875 14.875 C-21.92986328 14.84019531 -21.92986328 14.84019531 -20.13671875 14.8046875 C-17 15 -17 15 -14 17 C-13.56762695 19.06298828 -13.56762695 19.06298828 -13.48828125 21.5703125 C-13.43510742 22.91416016 -13.43510742 22.91416016 -13.38085938 24.28515625 C-13.35830078 25.22230469 -13.33574219 26.15945312 -13.3125 27.125 C-13.26125977 28.54232422 -13.26125977 28.54232422 -13.20898438 29.98828125 C-13.12635888 32.32540253 -13.05726012 34.66214191 -13 37 C-12.34 37.33 -11.68 37.66 -11 38 C-11 37.34 -11 36.68 -11 36 C-9.02 36 -7.04 36 -5 36 C-5 25.77 -5 15.54 -5 5 C-6.32 4.34 -7.64 3.68 -9 3 C-9 2.34 -9 1.68 -9 1 C-5.94152152 0.45627049 -3.11227195 0 0 0 Z M-23.5625 30 C-24.696875 30.66 -25.83125 31.32 -27 32 C-27 33.65 -27 35.3 -27 37 C-24.03 37.495 -24.03 37.495 -21 38 C-18.90649311 34.5980513 -18.82057837 31.94727588 -19 28 C-20.74206308 28 -22.08595092 29.1409169 -23.5625 30 Z " fill="#C9C6C3" transform="translate(113,31)"/>
<path d="M0 0 C4.29 0 8.58 0 13 0 C13.33 0.99 13.66 1.98 14 3 C14.72960938 3.5775 15.45921875 4.155 16.2109375 4.75 C19.59638372 7.48111628 22.0022131 10.55579083 24.625 14 C25.10195313 14.61617187 25.57890625 15.23234375 26.0703125 15.8671875 C28.40711096 18.89204328 30.70645954 21.94194605 33 25 C33.33 18.4 33.66 11.8 34 5 C33.34 4.67 32.68 4.34 32 4 C30.66666667 3.33333333 29.33333333 2.66666667 28 2 C28 1.34 28 0.68 28 0 C32.62 0 37.24 0 42 0 C42 0.66 42 1.32 42 2 C40.02 2.66 38.04 3.32 36 4 C36 15.55 36 27.1 36 39 C31.68748685 37.92187171 31.35651828 37.65670577 29 34.25 C28.48566406 33.52683594 27.97132812 32.80367187 27.44140625 32.05859375 C26.96574219 31.37925781 26.49007812 30.69992188 26 30 C24.01932019 27.41911418 22.08277743 25.08047806 19.75 22.8125 C15.82544239 18.7987479 12.47050008 14.41165264 9 10 C8.67 17.92 8.34 25.84 8 34 C9.34189957 34.67094978 10.69668689 35.31667586 12.0625 35.9375 C14 37 14 37 15 39 C10.05 39 5.1 39 0 39 C0 38.34 0 37.68 0 37 C0.8142041 36.59845703 1.6284082 36.19691406 2.46728516 35.78320312 C5.3104816 34.21745926 5.3104816 34.21745926 5.58349609 31.04492188 C5.56367676 29.86478516 5.54385742 28.68464844 5.5234375 27.46875 C5.51183594 26.18355469 5.50023437 24.89835937 5.48828125 23.57421875 C5.45063874 22.21614256 5.41287703 20.85806967 5.375 19.5 C5.35848976 18.14195191 5.34414248 16.78387569 5.33203125 15.42578125 C5.36985 8.6047083 5.36985 8.6047083 4 2 C2.68 2 1.36 2 0 2 C0 1.34 0 0.68 0 0 Z " fill="#988340" transform="translate(22,32)"/>
<path d="M0 0 C4.29 0 8.58 0 13 0 C12.01 1.485 12.01 1.485 11 3 C10.34 3 9.68 3 9 3 C9 3.66 9 4.32 9 5 C9.66 5 10.32 5 11 5 C11.28875 6.093125 11.5775 7.18625 11.875 8.3125 C12.81893204 12.04013845 12.81893204 12.04013845 15 15 C15.99 12.36 16.98 9.72 18 7 C18.66 7 19.32 7 20 7 C19.67 6.01 19.34 5.02 19 4 C18.34 3.67 17.68 3.34 17 3 C17 2.01 17 1.02 17 0 C20.3 0 23.6 0 27 0 C26 3 26 3 24.125 4.625 C21.56691077 7.48404091 20.87387294 9.95733743 19.7734375 13.578125 C17.38886756 21.04496017 13.5474788 28.03589203 10 35 C7.36 35 4.72 35 2 35 C2 33.35 2 31.7 2 30 C5.465 29.505 5.465 29.505 9 29 C10.24709143 26.77111328 10.24709143 26.77111328 11 24 C10.23814686 21.42650991 10.23814686 21.42650991 8.75 19 C6.43489287 14.83800965 4.62667398 10.72335344 3 6.25 C2.21568639 3.84296517 2.21568639 3.84296517 0 3 C0 2.01 0 1.02 0 0 Z " fill="#B0ADAB" transform="translate(131,46)"/>
<path d="M0 0 C2.10388569 -0.05402274 4.20816714 -0.09280256 6.3125 -0.125 C8.07013672 -0.15980469 8.07013672 -0.15980469 9.86328125 -0.1953125 C13 0 13 0 16 2 C16.43237305 4.06298828 16.43237305 4.06298828 16.51171875 6.5703125 C16.56489258 7.91416016 16.56489258 7.91416016 16.61914062 9.28515625 C16.64169922 10.22230469 16.66425781 11.15945312 16.6875 12.125 C16.73874023 13.54232422 16.73874023 13.54232422 16.79101562 14.98828125 C16.87364112 17.32540253 16.94273988 19.66214191 17 22 C17.66 22.33 18.32 22.66 19 23 C19 22.34 19 21.68 19 21 C19.66 21 20.32 21 21 21 C20.34 22.32 19.68 23.64 19 25 C17.700625 24.979375 16.40125 24.95875 15.0625 24.9375 C11.67174504 24.91075903 8.52997334 25.20032415 5.1875 25.75 C2.01293285 26.1273961 1.30088907 26.17613019 -1.5625 24.5 C-3.45876509 21.20214767 -3.2876744 18.73976724 -3 15 C-2.34 15 -1.68 15 -1 15 C-0.67 14.34 -0.34 13.68 0 13 C3.60963407 11.60536866 7.19331304 10.67176829 11 10 C10.34 8.02 9.68 6.04 9 4 C5.12202338 3.56613908 5.12202338 3.56613908 3.25 5.5 C2.8375 5.995 2.425 6.49 2 7 C0.68 6.34 -0.64 5.68 -2 5 C-1.34 3.35 -0.68 1.7 0 0 Z M4 17 C3.67 17.99 3.34 18.98 3 20 C3.99 21.485 3.99 21.485 5 23 C6.65 22.67 8.3 22.34 10 22 C10.33 19.03 10.66 16.06 11 13 C8.4864885 13 5.91548938 15.603289 4 17 Z " fill="#D4D0CD" transform="translate(160,46)"/>
<path d="M0 0 C0.99 0 1.98 0 3 0 C3.33 7.92 3.66 15.84 4 24 C5.32 22.68 6.64 21.36 8 20 C8.66 20 9.32 20 10 20 C10 19.34 10 18.68 10 18 C8.68 18 7.36 18 6 18 C6 17.01 6 16.02 6 15 C10.29 15 14.58 15 19 15 C16.28412721 17.71587279 14.00351596 19.77158493 11 22 C9.98198643 22.98165594 8.9753197 23.97591432 8 25 C8.99 25.33 9.98 25.66 11 26 C12.68359375 27.7421875 12.68359375 27.7421875 14.4375 29.875 C17.26413414 33.30237294 19.99740187 35.99870094 24 38 C24 38.66 24 39.32 24 40 C19.05 40 14.1 40 9 40 C9 39.34 9 38.68 9 38 C9.66 38 10.32 38 11 38 C10.23883449 36.84772177 9.46567307 35.7033614 8.6875 34.5625 C8.04361328 33.60537109 8.04361328 33.60537109 7.38671875 32.62890625 C5.9965948 30.7114316 5.9965948 30.7114316 3 30 C3.33 31.98 3.66 33.96 4 36 C3.34 36 2.68 36 2 36 C2 24.45 2 12.9 2 1 C1.34 0.67 0.68 0.34 0 0 Z " fill="#ACA9A6" transform="translate(110,31)"/>
<path d="M0 0 C2.64 0 5.28 0 8 0 C8.01458252 1.04454346 8.02916504 2.08908691 8.04418945 3.1652832 C8.10215551 7.04014345 8.17938774 10.91442151 8.26245117 14.78881836 C8.29570863 16.46580559 8.32373808 18.14290497 8.34643555 19.82006836 C8.37996737 22.23079225 8.43227978 24.64048762 8.48828125 27.05078125 C8.49467117 27.80087967 8.5010611 28.55097809 8.50764465 29.32380676 C8.63263083 33.74696937 8.72355368 34.72355368 12 38 C8.7 38 5.4 38 2 38 C2 37.01 2 36.02 2 35 C2.66 35 3.32 35 4 35 C4 24.77 4 14.54 4 4 C2.68 3.34 1.36 2.68 0 2 C0 1.34 0 0.68 0 0 Z " fill="#F2EEEA" transform="translate(104,32)"/>
<path d="M0 0 C0 1.65 0 3.3 0 5 C-0.66 5 -1.32 5 -2 5 C-2.0825 5.969375 -2.165 6.93875 -2.25 7.9375 C-2.8999125 12.67119101 -4.92305323 16.73984407 -7 21 C-7.66 21 -8.32 21 -9 21 C-8.938125 21.70125 -8.87625 22.4025 -8.8125 23.125 C-9.04256101 26.65260212 -10.29200568 28.93984351 -12 32 C-10.16666667 35.16666667 -10.16666667 35.16666667 -7 37 C-7.66 37 -8.32 37 -9 37 C-9.33 37.66 -9.66 38.32 -10 39 C-11.98 38.01 -13.96 37.02 -16 36 C-17.09997552 26.32021545 -11.36363789 17.54611446 -7.0625 9.19921875 C-5.85646419 6.8226374 -5.85646419 6.8226374 -4.8125 3.4375 C-4.544375 2.633125 -4.27625 1.82875 -4 1 C-2 0 -2 0 0 0 Z " fill="#8C793B" transform="translate(16,34)"/>
<path d="M0 0 C0 1.65 0 3.3 0 5 C-0.66 5 -1.32 5 -2 5 C-2.061875 5.94875 -2.12375 6.8975 -2.1875 7.875 C-2.79240521 12.21453738 -4.69455812 15.64959117 -6.72265625 19.48828125 C-8.45988349 22.9042969 -9.72898812 26.38765046 -11 30 C-11.66 30 -12.32 30 -13 30 C-13.33 31.32 -13.66 32.64 -14 34 C-14.66 34 -15.32 34 -16 34 C-17.17169756 30.48490731 -16.852231 30.06894013 -15.3125 26.875 C-14.93609375 26.07449219 -14.5596875 25.27398437 -14.171875 24.44921875 C-13.59179688 23.23685547 -13.59179688 23.23685547 -13 22 C-12.34846632 20.56507463 -11.70253955 19.127589 -11.0625 17.6875 C-10.73636719 16.95917969 -10.41023438 16.23085938 -10.07421875 15.48046875 C-8.34655745 11.49114175 -6.75061269 7.44740526 -5.1484375 3.40625 C-3.78701972 0.55375561 -3.14782943 0 0 0 Z " fill="#877439" transform="translate(77,43)"/>
<path d="M0 0 C0.66 0.33 1.32 0.66 2 1 C2 1.99 2 2.98 2 4 C-2.22222222 7 -2.22222222 7 -5 7 C-4.34 8.65 -3.68 10.3 -3 12 C-0.36 12.33 2.28 12.66 5 13 C4.67 13.66 4.34 14.32 4 15 C-0.50806946 16.11032081 -4.69435619 16.41780602 -9.125 15 C-11 13 -11 13 -11.5625 9.5 C-11 6 -11 6 -9.4375 4.25 C-6.31340552 2.64790027 -3.29913255 1.22190094 0 0 Z " fill="#B5B2AF" transform="translate(91,56)"/>
<path d="M0 0 C0.66 0.33 1.32 0.66 2 1 C2 1.99 2 2.98 2 4 C0.34467377 5.01866229 -1.32260138 6.01810813 -3 7 C-3.33 7.99 -3.66 8.98 -4 10 C-3.67 10.66 -3.34 11.32 -3 12 C-2.34 12.165 -1.68 12.33 -1 12.5 C-0.34 12.665 0.32 12.83 1 13 C1.33 13.66 1.66 14.32 2 15 C-6.01626233 16.57584644 -6.01626233 16.57584644 -9.5625 14.5 C-11.45876509 11.20214767 -11.2876744 8.73976724 -11 5 C-10.34 5 -9.68 5 -9 5 C-8.67 4.34 -8.34 3.68 -8 3 C-6.01751285 2.28293018 -4.01584651 1.61709587 -2 1 C-1.34 0.67 -0.68 0.34 0 0 Z " fill="#C6C2C0" transform="translate(168,56)"/>
<path d="M0 0 C4.62 0 9.24 0 14 0 C14 0.66 14 1.32 14 2 C12.02 2.66 10.04 3.32 8 4 C8 15.55 8 27.1 8 39 C6.68 38.67 5.36 38.34 4 38 C4.99 37.505 4.99 37.505 6 37 C6 26.44 6 15.88 6 5 C5.34 4.67 4.68 4.34 4 4 C2.66666667 3.33333333 1.33333333 2.66666667 0 2 C0 1.34 0 0.68 0 0 Z " fill="#927D3E" transform="translate(50,32)"/>
<path d="M0 0 C0.66 0 1.32 0 2 0 C4.09376089 3.41576009 4.17870845 5.89731433 3.9765625 9.859375 C3.925 10.97441406 3.8734375 12.08945312 3.8203125 13.23828125 C3.75585938 14.39714844 3.69140625 15.55601563 3.625 16.75 C3.56828125 17.92433594 3.5115625 19.09867188 3.453125 20.30859375 C3.31177072 23.20635647 3.16036781 26.10323749 3 29 C4.34189957 29.67094978 5.69668689 30.31667586 7.0625 30.9375 C9 32 9 32 10 34 C5.05 34 0.1 34 -5 34 C-5 33.34 -5 32.68 -5 32 C-4.1850708 31.60063232 -3.3701416 31.20126465 -2.53051758 30.78979492 C0.31986078 29.2134928 0.31986078 29.2134928 0.56762695 25.99731445 C0.54144287 24.7980835 0.51525879 23.59885254 0.48828125 22.36328125 C0.47216797 21.06455078 0.45605469 19.76582031 0.43945312 18.42773438 C0.39767609 17.05597301 0.35535135 15.68422823 0.3125 14.3125 C0.28741745 12.92907618 0.26460418 11.54560923 0.24414062 10.16210938 C0.18510827 6.77365236 0.10280082 3.38736615 0 0 Z " fill="#897739" transform="translate(27,37)"/>
<path d="M0 0 C0.66 0.33 1.32 0.66 2 1 C3.02620379 4.47330514 3.3982117 6.24150153 1.6875 9.5 C0.8521875 10.7375 0.8521875 10.7375 0 12 C-0.70381157 13.98723268 -1.3711811 15.98777953 -2 18 C-2.65411685 19.67163195 -3.31653318 21.34015202 -4 23 C-4.66 22.67 -5.32 22.34 -6 22 C-5.67 21.34 -5.34 20.68 -5 20 C-5.99 19.67 -6.98 19.34 -8 19 C-7.63648438 18.19949219 -7.63648438 18.19949219 -7.265625 17.3828125 C-4.68582848 11.6477264 -2.29742403 5.85354313 0 0 Z " fill="#6D5E2E" transform="translate(21,14)"/>
<path d="M0 0 C0.33 0.66 0.66 1.32 1 2 C0.05439935 4.0262871 -0.95377125 6.02379014 -2 8 C-2.68528045 9.65910004 -3.35891863 11.32332564 -4 13 C-4.66 13 -5.32 13 -6 13 C-6 14.65 -6 16.3 -6 18 C-9.20395416 18 -11.09399739 17.25664978 -14 16 C-13.67 15.34 -13.34 14.68 -13 14 C-12.01 14 -11.02 14 -10 14 C-9.3490741 12.75264433 -8.70448331 11.50198168 -8.0625 10.25 C-7.70285156 9.55390625 -7.34320313 8.8578125 -6.97265625 8.140625 C-6.04441818 6.09775567 -5.46833422 4.18884624 -5 2 C-3.68 2.33 -2.36 2.66 -1 3 C-0.67 2.01 -0.34 1.02 0 0 Z " fill="#70602F" transform="translate(64,74)"/>
<path d="M0 0 C3.3 0 6.6 0 10 0 C9 3 9 3 7.125 4.625 C4.11911044 7.98452363 3.20792344 11.71736235 2 16 C0.68 15.67 -0.64 15.34 -2 15 C-1.01 12.36 -0.02 9.72 1 7 C1.66 7 2.32 7 3 7 C2.67 6.01 2.34 5.02 2 4 C1.34 3.67 0.68 3.34 0 3 C0 2.01 0 1.02 0 0 Z " fill="#918F8D" transform="translate(148,46)"/>
<path d="M0 0 C4.29 0 8.58 0 13 0 C8.6058035 4.3941965 4.17622277 7.58839863 -1 11 C-1.66 10.67 -2.32 10.34 -3 10 C-1.37660195 8.29115995 0.29319053 6.62553283 2 5 C2.66 5 3.32 5 4 5 C4 4.34 4 3.68 4 3 C2.68 3 1.36 3 0 3 C0 2.01 0 1.02 0 0 Z " fill="#797877" transform="translate(116,46)"/>
<path d="M0 0 C1.27445454 0.42683632 2.54445882 0.86697202 3.8125 1.3125 C4.52019531 1.55613281 5.22789063 1.79976563 5.95703125 2.05078125 C8.16219184 3.07535873 9.3150977 4.27846939 11 6 C14.10007201 7.20049407 14.10007201 7.20049407 17 8 C14.63300992 9.49693208 13.51538217 10.0958646 10.7109375 9.57421875 C9.94007812 9.28160156 9.16921875 8.98898438 8.375 8.6875 C7.59898438 8.40261719 6.82296875 8.11773437 6.0234375 7.82421875 C4 7 4 7 2 6 C2 5.34 2 4.68 2 4 C1.01 3.67 0.02 3.34 -1 3 C-0.67 2.01 -0.34 1.02 0 0 Z " fill="#88753A" transform="translate(39,83)"/>
<path d="M0 0 C1 3 1 3 0.22265625 4.82421875 C-0.8515625 6.54947917 -1.92578125 8.27473958 -3 10 C-5.64 10 -8.28 10 -11 10 C-11 8.35 -11 6.7 -11 5 C-9.39125 4.87625 -9.39125 4.87625 -7.75 4.75 C-3.7261549 3.94523098 -2.51830747 3.12270126 0 0 Z " fill="#959291" transform="translate(144,71)"/>
<path d="M0 0 C3.3 0 6.6 0 10 0 C9.67 1.32 9.34 2.64 9 4 C7.68 4 6.36 4 5 4 C3.2488427 5.4166747 3.2488427 5.4166747 2 7 C0.68 6.34 -0.64 5.68 -2 5 C-1.34 3.35 -0.68 1.7 0 0 Z " fill="#9F9C9A" transform="translate(160,46)"/>
<path d="M0 0 C3.3 0 6.6 0 10 0 C7.93970355 3.09044468 7.17393713 3.51221697 4 5 C3.34 5.66 2.68 6.32 2 7 C0.68 6.34 -0.64 5.68 -2 5 C-1.34 3.35 -0.68 1.7 0 0 Z " fill="#A6A4A1" transform="translate(83,46)"/>
<path d="M0 0 C0 1.65 0 3.3 0 5 C-0.66 5 -1.32 5 -2 5 C-2.33 7.31 -2.66 9.62 -3 12 C-4.32 11.67 -5.64 11.34 -7 11 C-6.39102647 7.44765442 -5.54266151 4.2668126 -4 1 C-2 0 -2 0 0 0 Z " fill="#8A773A" transform="translate(77,43)"/>
<path d="M0 0 C0 1.65 0 3.3 0 5 C-0.66 5 -1.32 5 -2 5 C-2.33 7.31 -2.66 9.62 -3 12 C-4.32 11.67 -5.64 11.34 -7 11 C-6.39102647 7.44765442 -5.54266151 4.2668126 -4 1 C-2 0 -2 0 0 0 Z " fill="#897539" transform="translate(16,34)"/>
<path d="M0 0 C3.59835033 -0.19990835 5.93853104 0.03191281 9 2 C9.33 2.66 9.66 3.32 10 4 C10.99 4.66 11.98 5.32 13 6 C12.34 6 11.68 6 11 6 C10.67 6.66 10.34 7.32 10 8 C10 7.34 10 6.68 10 6 C8.906875 5.896875 7.81375 5.79375 6.6875 5.6875 C3 5 3 5 1.0625 3.5625 C0 2 0 2 0 0 Z " fill="#877439" transform="translate(43,6)"/>
<path d="M0 0 C0.99 0.33 1.98 0.66 3 1 C2.67 2.32 2.34 3.64 2 5 C4.475 6.98 4.475 6.98 7 9 C6.34 9 5.68 9 5 9 C4.67 9.66 4.34 10.32 4 11 C2.02 10.01 0.04 9.02 -2 8 C-2.20086443 4.28400809 -2.1519437 3.22791555 0 0 Z " fill="#8D793C" transform="translate(2,62)"/>
<path d="M0 0 C0.66 0.33 1.32 0.66 2 1 C2 1.99 2 2.98 2 4 C1.195625 4.45375 0.39125 4.9075 -0.4375 5.375 C-3.24882907 6.76652185 -3.24882907 6.76652185 -3.8125 9.6875 C-3.874375 10.450625 -3.93625 11.21375 -4 12 C-4.66 11.67 -5.32 11.34 -6 11 C-5.125 6.25 -5.125 6.25 -4 4 C-5.32 3.67 -6.64 3.34 -8 3 C-7.05125 2.690625 -6.1025 2.38125 -5.125 2.0625 C-2.13919592 1.12605258 -2.13919592 1.12605258 0 0 Z " fill="#5D5C5B" transform="translate(168,56)"/>
<path d="M0 0 C0.33 0.66 0.66 1.32 1 2 C0.0520411 4.02518491 -0.95191959 6.02477154 -2 8 C-2.33 8.99 -2.66 9.98 -3 11 C-3.66 10.67 -4.32 10.34 -5 10 C-4.67 9.34 -4.34 8.68 -4 8 C-4.99 7.67 -5.98 7.34 -7 7 C-6.34 5.35 -5.68 3.7 -5 2 C-3.68 2.33 -2.36 2.66 -1 3 C-0.67 2.01 -0.34 1.02 0 0 Z " fill="#544924" transform="translate(64,74)"/>
<path d="M0 0 C0.33 0.66 0.66 1.32 1 2 C0.0520411 4.02518491 -0.95191959 6.02477154 -2 8 C-2.33 8.99 -2.66 9.98 -3 11 C-3.66 10.67 -4.32 10.34 -5 10 C-4.67 9.34 -4.34 8.68 -4 8 C-4.99 7.67 -5.98 7.34 -7 7 C-6.34 5.35 -5.68 3.7 -5 2 C-3.68 2.33 -2.36 2.66 -1 3 C-0.67 2.01 -0.34 1.02 0 0 Z " fill="#564A24" transform="translate(81,35)"/>
<path d="M0 0 C1.32 0 2.64 0 4 0 C3.01 2.97 2.02 5.94 1 9 C-0.32 8.67 -1.64 8.34 -3 8 C-2.01 5.36 -1.02 2.72 0 0 Z " fill="#616060" transform="translate(149,53)"/>
<path d="M0 0 C0.66 0.33 1.32 0.66 2 1 C2 1.99 2 2.98 2 4 C0.02 4.99 -1.96 5.98 -4 7 C-4 6.01 -4 5.02 -4 4 C-4.66 3.67 -5.32 3.34 -6 3 C-4.03533587 1.93224776 -2.03144641 0.93446535 0 0 Z " fill="#6C6B6A" transform="translate(91,56)"/>
<path d="M0 0 C4.62 0 9.24 0 14 0 C14 0.66 14 1.32 14 2 C12.68 2.33 11.36 2.66 10 3 C10 2.67 10 2.34 10 2 C5.85906302 1.79029441 5.85906302 1.79029441 2 3 C1.34 2.67 0.68 2.34 0 2 C0 1.34 0 0.68 0 0 Z " fill="#594C26" transform="translate(50,32)"/>
<path d="M0 0 C2.875 0.625 2.875 0.625 6 2 C7.375 5.125 7.375 5.125 8 8 C5.125 7.375 5.125 7.375 2 6 C0.625 2.875 0.625 2.875 0 0 Z " fill="#5D5027" transform="translate(53,9)"/>
<path d="M0 0 C2 1 2 1 4 4 C3.125 6.6875 3.125 6.6875 2 9 C1.34 8.67 0.68 8.34 0 8 C0.33 7.34 0.66 6.68 1 6 C0.01 5.67 -0.98 5.34 -2 5 C-1.34 3.35 -0.68 1.7 0 0 Z " fill="#5F5127" transform="translate(69,53)"/>
<path d="M0 0 C2 1 2 1 4 4 C3.125 6.6875 3.125 6.6875 2 9 C1.34 8.67 0.68 8.34 0 8 C0.33 7.34 0.66 6.68 1 6 C0.01 5.67 -0.98 5.34 -2 5 C-1.34 3.35 -0.68 1.7 0 0 Z " fill="#5E5127" transform="translate(8,44)"/>
<path d="M0 0 C2.475 0.99 2.475 0.99 5 2 C5 2.66 5 3.32 5 4 C5.66 4.33 6.32 4.66 7 5 C6.34 5 5.68 5 5 5 C4.67 5.66 4.34 6.32 4 7 C3.34 6.67 2.68 6.34 2 6 C2 5.34 2 4.68 2 4 C1.01 3.67 0.02 3.34 -1 3 C-0.67 2.01 -0.34 1.02 0 0 Z " fill="#927E3D" transform="translate(60,12)"/>
<path d="M0 0 C1.65 0 3.3 0 5 0 C4.67 1.32 4.34 2.64 4 4 C2.68 4 1.36 4 0 4 C0 4.66 0 5.32 0 6 C-0.66 5.67 -1.32 5.34 -2 5 C-1.34 3.35 -0.68 1.7 0 0 Z " fill="#65572B" transform="translate(2,58)"/>
<path d="M0 0 C0 1.65 0 3.3 0 5 C-1.32 5 -2.64 5 -4 5 C-4 5.66 -4 6.32 -4 7 C-4.66 6.67 -5.32 6.34 -6 6 C-3.84615385 0 -3.84615385 0 0 0 Z " fill="#7D6C34" transform="translate(77,43)"/>
<path d="M0 0 C0 1.65 0 3.3 0 5 C-1.32 5 -2.64 5 -4 5 C-4 5.66 -4 6.32 -4 7 C-4.66 6.67 -5.32 6.34 -6 6 C-3.84615385 0 -3.84615385 0 0 0 Z " fill="#7E6C34" transform="translate(16,34)"/>
<path d="M0 0 C2.31 0 4.62 0 7 0 C6.67 0.99 6.34 1.98 6 3 C4.02 3.33 2.04 3.66 0 4 C0 2.68 0 1.36 0 0 Z " fill="#A89146" transform="translate(54,33)"/>
<path d="M0 0 C2.64 0.99 5.28 1.98 8 3 C8 3.33 8 3.66 8 4 C6.35 4 4.7 4 3 4 C2.67 4.66 2.34 5.32 2 6 C1.34 5.67 0.68 5.34 0 5 C0 3.35 0 1.7 0 0 Z " fill="#615429" transform="translate(73,18)"/>
<path d="M0 0 C0.125 4.75 0.125 4.75 -1 7 C-1.99 7 -2.98 7 -4 7 C-4 5.02 -4 3.04 -4 1 C-2 0 -2 0 0 0 Z " fill="#9E8843" transform="translate(70,59)"/>
<path d="M0 0 C0.125 4.75 0.125 4.75 -1 7 C-1.99 7 -2.98 7 -4 7 C-4 5.02 -4 3.04 -4 1 C-2 0 -2 0 0 0 Z " fill="#9E8842" transform="translate(26,11)"/>
<path d="M0 0 C0.99 0.33 1.98 0.66 3 1 C3 2.65 3 4.3 3 6 C1.02 5.34 -0.96 4.68 -3 4 C-2.67 3.34 -2.34 2.68 -2 2 C-1.34 2.33 -0.68 2.66 0 3 C0 2.01 0 1.02 0 0 Z " fill="#584C25" transform="translate(35,81)"/>
<path d="M0 0 C2.31 0 4.62 0 7 0 C7.33 0.99 7.66 1.98 8 3 C5.3333581 4.33332095 3.83319697 3.67102033 1 3 C0.67 2.01 0.34 1.02 0 0 Z " fill="#A78F46" transform="translate(76,22)"/>
<path d="M0 0 C1 3 1 3 -0.4375 6.1875 C-1.2109375 7.5796875 -1.2109375 7.5796875 -2 9 C-3.125 7.25 -3.125 7.25 -4 5 C-3.07451225 2.30066074 -2.57626463 1.28813232 0 0 Z " fill="#535252" transform="translate(144,71)"/>
<path d="M0 0 C0.66 0.33 1.32 0.66 2 1 C2.625 4.0625 2.625 4.0625 3 7 C1.35 6.67 -0.3 6.34 -2 6 C-1.34 4.02 -0.68 2.04 0 0 Z " fill="#5E5127" transform="translate(65,62)"/>
<path d="M0 0 C0.66 0.33 1.32 0.66 2 1 C2.625 4.0625 2.625 4.0625 3 7 C1.35 6.67 -0.3 6.34 -2 6 C-1.34 4.02 -0.68 2.04 0 0 Z " fill="#5F5128" transform="translate(21,14)"/>
<path d="M0 0 C0.99 0.66 1.98 1.32 3 2 C2.1875 3.9375 2.1875 3.9375 1 6 C0.01 6.33 -0.98 6.66 -2 7 C-1.125 1.125 -1.125 1.125 0 0 Z " fill="#9A8541" transform="translate(28,0)"/>
<path d="" fill="#000000" transform="translate(0,0)"/>
<path d="" fill="#000000" transform="translate(0,0)"/>
<path d="" fill="#000000" transform="translate(0,0)"/>
<path d="" fill="#000000" transform="translate(0,0)"/>
<path d="" fill="#000000" transform="translate(0,0)"/>
<path d="" fill="#000000" transform="translate(0,0)"/>
<path d="" fill="#000000" transform="translate(0,0)"/>
<path d="" fill="#000000" transform="translate(0,0)"/>
<path d="" fill="#000000" transform="translate(0,0)"/>
<path d="" fill="#000000" transform="translate(0,0)"/>
<path d="" fill="#000000" transform="translate(0,0)"/>
<path d="" fill="#000000" transform="translate(0,0)"/>
<path d="" fill="#000000" transform="translate(0,0)"/>
<path d="" fill="#000000" transform="translate(0,0)"/>
<path d="" fill="#000000" transform="translate(0,0)"/>
<path d="" fill="#000000" transform="translate(0,0)"/>
<path d="" fill="#000000" transform="translate(0,0)"/>
<path d="" fill="#000000" transform="translate(0,0)"/>
<path d="" fill="#000000" transform="translate(0,0)"/>
<path d="" fill="#000000" transform="translate(0,0)"/>
</svg>
