<?xml version="1.0" encoding="UTF-8"?>
<!DOCTYPE svg PUBLIC "-//W3C//DTD SVG 1.1//EN" "http://www.w3.org/Graphics/SVG/1.1/DTD/svg11.dtd">
<svg xmlns="http://www.w3.org/2000/svg" version="1.1" width="181px" height="93px" style="shape-rendering:geometricPrecision; text-rendering:geometricPrecision; image-rendering:optimizeQuality; fill-rule:evenodd; clip-rule:evenodd" xmlns:xlink="http://www.w3.org/1999/xlink">
<g><path style="opacity:0.009" fill="#130f07" d="M 40.5,3.5 C 43.0336,3.25915 44.7002,4.25915 45.5,6.5C 43.6316,5.73685 41.9649,4.73685 40.5,3.5 Z"/></g>
<g><path style="opacity:0.984" fill="#988341" d="M 27.5,-0.5 C 27.8333,-0.5 28.1667,-0.5 28.5,-0.5C 28.8333,0.833333 29.1667,0.833333 29.5,-0.5C 31.1667,-0.5 32.8333,-0.5 34.5,-0.5C 34.3932,1.37857 34.8932,1.7119 36,0.5C 36.3173,2.30077 36.984,2.63411 38,1.5C 38.4839,3.17752 39.3172,3.84419 40.5,3.5C 41.9649,4.73685 43.6316,5.73685 45.5,6.5C 46.1174,6.38929 46.6174,6.05596 47,5.5C 48.6667,6.83333 50.3333,8.16667 52,9.5C 53.9979,8.72858 55.6646,9.39525 57,11.5C 58.016,10.3659 58.6827,10.6992 59,12.5C 60.016,11.3659 60.6827,11.6992 61,13.5C 62.016,12.3659 62.6827,12.6992 63,14.5C 63.3333,14.1667 63.6667,13.8333 64,13.5C 65.7286,13.9743 66.8953,14.9743 67.5,16.5C 65.8041,14.871 64.8041,15.2043 64.5,17.5C 64.5654,17.9382 64.3988,18.2716 64,18.5C 62.8446,17.6619 61.6779,16.6619 60.5,15.5C 59.1667,14.8333 57.8333,14.1667 56.5,13.5C 55.1751,14.9526 54.3418,14.6192 54,12.5C 53.6667,12.8333 53.3333,13.1667 53,13.5C 52.2798,11.9443 51.1132,10.9443 49.5,10.5C 47.7028,9.27024 45.7028,8.60357 43.5,8.5C 41.6775,6.76547 39.3441,5.76547 36.5,5.5C 35.713,3.89578 34.3797,3.22911 32.5,3.5C 32.5,2.83333 32.1667,2.5 31.5,2.5C 31.1667,2.5 30.8333,2.5 30.5,2.5C 30.1667,1.16667 29.8333,1.16667 29.5,2.5C 28.7659,3.70792 28.4326,5.04125 28.5,6.5C 27.8333,7.83333 27.1667,9.16667 26.5,10.5C 25.5987,11.2905 24.9321,12.2905 24.5,13.5C 25.9526,14.8249 25.6192,15.6582 23.5,16C 24.6341,17.016 24.3008,17.6827 22.5,18C 22.8346,19.5026 22.8346,20.836 22.5,22C 21.6619,23.1554 20.6619,24.3221 19.5,25.5C 18.8333,26.8333 18.1667,28.1667 17.5,29.5C 17.6107,30.1174 17.944,30.6174 18.5,31C 16.8225,31.4839 16.1558,32.3172 16.5,33.5C 15.5987,34.2905 14.9321,35.2905 14.5,36.5C 14.6107,37.1174 14.944,37.6174 15.5,38C 13.9443,38.7202 12.9443,39.8868 12.5,41.5C 11.7659,42.7079 11.4326,44.0413 11.5,45.5C 10.8333,46.8333 10.1667,48.1667 9.5,49.5C 8.59872,50.2905 7.93205,51.2905 7.5,52.5C 7.61071,53.1174 7.94404,53.6174 8.5,54C 6.22361,55.0302 5.55694,56.5302 6.5,58.5C 5.97473,59.1924 5.30806,59.6924 4.5,60C 5.63411,61.016 5.30077,61.6827 3.5,62C 4.63411,63.016 4.30077,63.6827 2.5,64C 3.64055,64.7412 3.64055,65.5745 2.5,66.5C 8.17719,68.3073 13.1772,70.6407 17.5,73.5C 18.2905,74.4013 19.2905,75.0679 20.5,75.5C 21.8249,74.0474 22.6582,74.3808 23,76.5C 24.016,75.3659 24.6827,75.6992 25,77.5C 25.3333,77.1667 25.6667,76.8333 26,76.5C 26.4839,78.1775 27.3172,78.8442 28.5,78.5C 29.7804,79.9313 31.4471,80.5979 33.5,80.5C 35.5,81.5 37.5,82.5 39.5,83.5C 40.7804,84.9313 42.4471,85.5979 44.5,85.5C 45.7721,85.0424 46.7721,85.7091 47.5,87.5C 47.6309,88.3764 47.2975,89.0431 46.5,89.5C 45.2638,88.7542 43.9305,88.4208 42.5,88.5C 40.7674,87.1336 38.7674,86.1336 36.5,85.5C 35.0351,84.2632 33.3684,83.2632 31.5,82.5C 30.1751,83.9526 29.3418,83.6192 29,81.5C 28.6667,81.8333 28.3333,82.1667 28,82.5C 26.8446,81.6619 25.6779,80.6619 24.5,79.5C 23.1667,78.8333 21.8333,78.1667 20.5,77.5C 19.1751,78.9526 18.3418,78.6192 18,76.5C 17.6667,76.8333 17.3333,77.1667 17,77.5C 15.8446,76.6619 14.6779,75.6619 13.5,74.5C 12.1667,73.8333 10.8333,73.1667 9.5,72.5C 8.17513,73.9526 7.3418,73.6192 7,71.5C 6.66667,71.8333 6.33333,72.1667 6,72.5C 4.84461,71.6619 3.67794,70.6619 2.5,69.5C 1.60895,68.8902 0.608953,68.5569 -0.5,68.5C -0.5,68.1667 -0.5,67.8333 -0.5,67.5C 0.833333,67.1667 0.833333,66.8333 -0.5,66.5C -0.5,65.8333 -0.5,65.1667 -0.5,64.5C 0.833333,64.1667 0.833333,63.8333 -0.5,63.5C -0.5,63.1667 -0.5,62.8333 -0.5,62.5C -0.166667,62.5 0.166667,62.5 0.5,62.5C 1.40128,61.7095 2.06795,60.7095 2.5,59.5C 2.38929,58.8826 2.05596,58.3826 1.5,58C 3.17752,57.5161 3.84419,56.6828 3.5,55.5C 4.40128,54.7095 5.06795,53.7095 5.5,52.5C 5.38929,51.8826 5.05596,51.3826 4.5,51C 5.5,50 6.5,49 7.5,48C 6.72858,46.0021 7.39525,44.3354 9.5,43C 8.36589,41.984 8.69923,41.3173 10.5,41C 9.72858,39.0021 10.3952,37.3354 12.5,36C 11.3659,34.984 11.6992,34.3173 13.5,34C 12.3659,32.984 12.6992,32.3173 14.5,32C 14.0426,31.586 13.7093,31.086 13.5,30.5C 15.9671,28.4086 17.3005,26.0752 17.5,23.5C 18.4013,22.7095 19.0679,21.7095 19.5,20.5C 19.3893,19.8826 19.056,19.3826 18.5,19C 20.1775,18.5161 20.8442,17.6828 20.5,16.5C 21.4013,15.7095 22.0679,14.7095 22.5,13.5C 22.3893,12.8826 22.056,12.3826 21.5,12C 22.5,11 23.5,10 24.5,9C 23.7286,7.00209 24.3952,5.33543 26.5,4C 25.3659,2.98398 25.6992,2.31732 27.5,2C 26.4019,1.23029 26.4019,0.396953 27.5,-0.5 Z"/></g>
<g><path style="opacity:0.006" fill="#070504" d="M 32.5,3.5 C 34.3797,3.22911 35.713,3.89578 36.5,5.5C 34.847,5.3404 33.5137,4.67373 32.5,3.5 Z"/></g>
<g><path style="opacity:0.007" fill="#090802" d="M 29.5,2.5 C 29.8333,2.5 30.1667,2.5 30.5,2.5C 30.8333,2.5 31.1667,2.5 31.5,2.5C 30.4884,3.87165 29.4884,5.20498 28.5,6.5C 28.4326,5.04125 28.7659,3.70792 29.5,2.5 Z"/></g>
<g><path style="opacity:0.006" fill="#0f0d0a" d="M 43.5,8.5 C 45.7028,8.60357 47.7028,9.27024 49.5,10.5C 47.3159,11.1081 45.3159,10.4414 43.5,8.5 Z"/></g>
<g><path style="opacity:0.006" fill="#1b1709" d="M 26.5,10.5 C 26.7148,12.1788 26.0481,13.1788 24.5,13.5C 24.9321,12.2905 25.5987,11.2905 26.5,10.5 Z"/></g>
<g><path style="opacity:0.012" fill="#131007" d="M 22.5,13.5 C 22.0679,14.7095 21.4013,15.7095 20.5,16.5C 20.2852,14.8212 20.9519,13.8212 22.5,13.5 Z"/></g>
<g><path style="opacity:0.006" fill="#130f09" d="M 56.5,13.5 C 57.8333,14.1667 59.1667,14.8333 60.5,15.5C 60.44,16.0431 60.1067,16.3764 59.5,16.5C 57.7869,16.1207 56.7869,15.1207 56.5,13.5 Z"/></g>
<g><path style="opacity:0.008" fill="#19130b" d="M 67.5,18.5 C 68.8333,19.1667 70.1667,19.8333 71.5,20.5C 71.44,21.0431 71.1067,21.3764 70.5,21.5C 68.7869,21.1207 67.7869,20.1207 67.5,18.5 Z"/></g>
<g><path style="opacity:0.008" fill="#12100a" d="M 75.5,19.5 C 77.5529,19.4021 79.2196,20.0687 80.5,21.5C 78.4471,21.5979 76.7804,20.9313 75.5,19.5 Z"/></g>
<g><path style="opacity:0.006" fill="#1b1811" d="M 19.5,20.5 C 19.0679,21.7095 18.4013,22.7095 17.5,23.5C 17.2852,21.8212 17.9519,20.8212 19.5,20.5 Z"/></g>
<g><path style="opacity:0.012" fill="#000000" d="M 83.5,22.5 C 84.8333,23.1667 84.8333,23.1667 83.5,22.5 Z"/></g>
<g><path style="opacity:0.008" fill="#1b180f" d="M 78.5,23.5 C 80.1898,23.8564 81.1898,24.8564 81.5,26.5C 79.8102,26.1436 78.8102,25.1436 78.5,23.5 Z"/></g>
<g><path style="opacity:0.006" fill="#17120b" d="M 19.5,25.5 C 20.0431,25.56 20.3764,25.8933 20.5,26.5C 20.1207,28.2131 19.1207,29.2131 17.5,29.5C 18.1667,28.1667 18.8333,26.8333 19.5,25.5 Z"/></g>
<g><path style="opacity:0.006" fill="#1c180e" d="M 80.5,29.5 C 80.0679,30.7095 79.4013,31.7095 78.5,32.5C 78.2852,30.8212 78.9519,29.8212 80.5,29.5 Z"/></g>
<g><path style="opacity:0.177" fill="#423a1c" d="M 34.5,33.5 C 30.3989,32.2092 26.3989,32.2092 22.5,33.5C 21.9569,33.44 21.6236,33.1067 21.5,32.5C 25.7953,31.3391 30.1287,31.1725 34.5,32C 35.7383,32.69 35.7383,33.19 34.5,33.5 Z"/></g>
<g><path style="opacity:0.184" fill="#514524" d="M 59.5,34.5 C 59.6107,33.8826 59.944,33.3826 60.5,33C 57.3035,32.1955 54.3035,32.3622 51.5,33.5C 50.6236,33.6309 49.9569,33.2975 49.5,32.5C 54.1667,31.1667 58.8333,31.1667 63.5,32.5C 62.4231,33.7051 61.0898,34.3718 59.5,34.5 Z"/></g>
<g><path style="opacity:1" fill="#f9f5f1" d="M 103.5,32.5 C 105.265,31.5386 107.265,31.2053 109.5,31.5C 111.156,40.2871 112.156,49.2871 112.5,58.5C 111.233,61.272 111.233,63.9387 112.5,66.5C 112.973,67.9063 113.973,68.573 115.5,68.5C 112.167,69.8333 108.833,69.8333 105.5,68.5C 106.833,68.1667 106.833,67.8333 105.5,67.5C 107.44,57.0897 108.107,46.4231 107.5,35.5C 106.738,33.7376 105.404,32.7376 103.5,32.5 Z"/></g>
<g><path style="opacity:0.385" fill="#8e8a88" d="M 109.5,31.5 C 110.209,30.596 111.209,30.2627 112.5,30.5C 112.334,38.84 112.5,47.1733 113,55.5C 114.371,53.9586 115.871,52.6253 117.5,51.5C 117.5,52.1667 117.5,52.8333 117.5,53.5C 117.5,54.1667 117.167,54.5 116.5,54.5C 115.5,55.1667 114.5,55.8333 113.5,56.5C 112.833,56.5 112.5,56.8333 112.5,57.5C 112.5,57.8333 112.5,58.1667 112.5,58.5C 112.156,49.2871 111.156,40.2871 109.5,31.5 Z"/></g>
<g><path style="opacity:0.005" fill="#100f06" d="M 16.5,33.5 C 16.7148,35.1788 16.0481,36.1788 14.5,36.5C 14.9321,35.2905 15.5987,34.2905 16.5,33.5 Z"/></g>
<g><path style="opacity:0.993" fill="#ac9449" d="M 22.5,33.5 C 26.3989,32.2092 30.3989,32.2092 34.5,33.5C 34.8333,34.5 35.5,35.1667 36.5,35.5C 36.427,37.0269 37.0937,38.0269 38.5,38.5C 38.8333,39.8333 39.1667,39.8333 39.5,38.5C 40.3382,38.8417 40.6716,39.5084 40.5,40.5C 40.427,42.0269 41.0937,43.0269 42.5,43.5C 42.8333,44.8333 43.1667,44.8333 43.5,43.5C 44.3382,43.8417 44.6716,44.5084 44.5,45.5C 44.427,47.0269 45.0937,48.0269 46.5,48.5C 46.8333,49.8333 47.1667,49.8333 47.5,48.5C 48.3382,48.8417 48.6716,49.5084 48.5,50.5C 48.427,52.0269 49.0937,53.0269 50.5,53.5C 50.8333,54.8333 51.1667,54.8333 51.5,53.5C 52.3382,53.8417 52.6716,54.5084 52.5,55.5C 52.427,57.0269 53.0937,58.0269 54.5,58.5C 54.8333,59.8333 55.1667,59.8333 55.5,58.5C 55.5,58.1667 55.5,57.8333 55.5,57.5C 56.1079,50.052 55.4413,42.8853 53.5,36C 53.8333,35.6667 54.1667,35.3333 54.5,35C 53.4982,33.8437 52.4982,33.3437 51.5,33.5C 54.3035,32.3622 57.3035,32.1955 60.5,33C 59.944,33.3826 59.6107,33.8826 59.5,34.5C 58.8333,35.1667 58.1667,35.8333 57.5,36.5C 57.1586,47.7046 56.1586,58.7046 54.5,69.5C 53.8333,69.5 53.5,69.1667 53.5,68.5C 53.6716,67.5084 53.3382,66.8417 52.5,66.5C 52.1667,65.1667 51.8333,65.1667 51.5,66.5C 50.4036,64.8968 49.0703,63.3968 47.5,62C 47.8333,61.6667 48.1667,61.3333 48.5,61C 44.9651,58.5104 42.2984,55.677 40.5,52.5C 40.6716,51.5084 40.3382,50.8417 39.5,50.5C 39.1667,49.1667 38.8333,49.1667 38.5,50.5C 35.5314,47.3581 32.698,44.0247 30,40.5C 29.5003,48.8267 29.3336,57.16 29.5,65.5C 28.8333,55.8333 28.1667,46.1667 27.5,36.5C 26.3303,34.7215 24.6636,33.7215 22.5,33.5 Z"/></g>
<g><path style="opacity:0.004" fill="#282727" d="M 103.5,32.5 C 105.404,32.7376 106.738,33.7376 107.5,35.5C 105.596,35.2624 104.262,34.2624 103.5,32.5 Z"/></g>
<g><path style="opacity:0.006" fill="#16130a" d="M 80.5,34.5 C 81.0431,34.56 81.3764,34.8933 81.5,35.5C 81.1207,37.2131 80.1207,38.2131 78.5,38.5C 79.1667,37.1667 79.8333,35.8333 80.5,34.5 Z"/></g>
<g><path style="opacity:0.051" fill="#372c15" d="M 36.5,35.5 C 37.8333,36.1667 38.8333,37.1667 39.5,38.5C 39.1667,38.5 38.8333,38.5 38.5,38.5C 37.0937,38.0269 36.427,37.0269 36.5,35.5 Z"/></g>
<g><path style="opacity:0.286" fill="#756432" d="M 27.5,36.5 C 28.1667,46.1667 28.8333,55.8333 29.5,65.5C 31.2239,65.4607 31.5573,65.794 30.5,66.5C 29.5,66.5 28.5,66.5 27.5,66.5C 27.4826,56.4022 27.4826,46.4022 27.5,36.5 Z"/></g>
<g><path style="opacity:0.047" fill="#292514" d="M 40.5,40.5 C 41.8333,41.1667 42.8333,42.1667 43.5,43.5C 43.1667,43.5 42.8333,43.5 42.5,43.5C 41.0937,43.0269 40.427,42.0269 40.5,40.5 Z"/></g>
<g><path style="opacity:0.007" fill="#130e08" d="M 77.5,42.5 C 77.7148,44.1788 77.0481,45.1788 75.5,45.5C 75.9321,44.2905 76.5987,43.2905 77.5,42.5 Z"/></g>
<g><path style="opacity:0.008" fill="#060301" d="M 12.5,41.5 C 13.4709,42.9621 13.1376,44.2954 11.5,45.5C 11.4326,44.0413 11.7659,42.7079 12.5,41.5 Z"/></g>
<g><path style="opacity:0.286" fill="#716031" d="M 57.5,36.5 C 57.5,47.8333 57.5,59.1667 57.5,70.5C 56.209,70.7373 55.209,70.404 54.5,69.5C 56.1586,58.7046 57.1586,47.7046 57.5,36.5 Z"/></g>
<g><path style="opacity:0.008" fill="#181508" d="M 73.5,45.5 C 73.0679,46.7095 72.4013,47.7095 71.5,48.5C 71.2852,46.8212 71.9519,45.8212 73.5,45.5 Z"/></g>
<g><path style="opacity:0.588" fill="#787673" d="M 82.5,46.5 C 85.8333,45.1667 89.1667,45.1667 92.5,46.5C 91.8333,46.5 91.5,46.8333 91.5,47.5C 91.5,47.8333 91.5,48.1667 91.5,48.5C 90.1667,47.1667 88.8333,47.1667 87.5,48.5C 87.5,48.1667 87.5,47.8333 87.5,47.5C 86.0813,46.5489 84.4147,46.2155 82.5,46.5 Z"/></g>
<g><path style="opacity:0.035" fill="#2e2e29" d="M 127.5,46.5 C 123.629,46.185 119.962,46.5184 116.5,47.5C 115.58,48.0674 115.246,47.4008 115.5,45.5C 120.278,45.1649 124.278,45.4982 127.5,46.5 Z"/></g>
<g><path style="opacity:0.035" fill="#2b2b29" d="M 142.5,46.5 C 138.818,46.3347 135.152,46.5014 131.5,47C 132.756,47.4169 133.423,48.2502 133.5,49.5C 131.468,48.9522 130.468,47.6188 130.5,45.5C 135.278,45.1649 139.278,45.4982 142.5,46.5 Z"/></g>
<g><path style="opacity:0.004" fill="#171616" d="M 170.5,46.5 C 171.779,45.2848 172.779,45.6182 173.5,47.5C 172.391,47.4431 171.391,47.1098 170.5,46.5 Z"/></g>
<g><path style="opacity:0.008" fill="#000000" d="M 81.5,47.5 C 80.8333,46.1667 80.8333,46.1667 81.5,47.5 Z"/></g>
<g><path style="opacity:0.006" fill="#0e0e0e" d="M 93.5,46.5 C 94.9621,45.5291 96.2954,45.8624 97.5,47.5C 97.1667,47.5 96.8333,47.5 96.5,47.5C 95.391,47.4431 94.391,47.1098 93.5,46.5 Z"/></g>
<g><path style="opacity:0.008" fill="#000000" d="M 157.5,46.5 C 158.167,46.5 158.5,46.8333 158.5,47.5C 158.167,47.1667 157.833,46.8333 157.5,46.5 Z"/></g>
<g><path style="opacity:0.416" fill="#6e6867" d="M 159.5,46.5 C 162.833,45.1667 166.167,45.1667 169.5,46.5C 168.884,47.2022 168.884,48.2022 169.5,49.5C 168.065,47.5989 166.398,47.2655 164.5,48.5C 164.5,48.1667 164.5,47.8333 164.5,47.5C 163.081,46.5489 161.415,46.2155 159.5,46.5 Z"/></g>
<g><path style="opacity:0.039" fill="#221e16" d="M 44.5,45.5 C 45.8333,46.1667 46.8333,47.1667 47.5,48.5C 47.1667,48.5 46.8333,48.5 46.5,48.5C 45.0937,48.0269 44.427,47.0269 44.5,45.5 Z"/></g>
<g><path style="opacity:0.996" fill="#e4e0dd" d="M 82.5,46.5 C 84.4147,46.2155 86.0813,46.5489 87.5,47.5C 86.1667,47.8333 86.1667,48.1667 87.5,48.5C 86.8333,49.1667 86.1667,49.8333 85.5,50.5C 84.8333,50.5 84.5,50.8333 84.5,51.5C 83.5,52.8333 82.5,52.8333 81.5,51.5C 80.1667,50.1667 80.1667,48.8333 81.5,47.5C 82.1667,47.5 82.5,47.1667 82.5,46.5 Z"/></g>
<g><path style="opacity:0.992" fill="#c1bfbe" d="M 116.5,47.5 C 119.962,46.5184 123.629,46.185 127.5,46.5C 127.158,47.3382 126.492,47.6716 125.5,47.5C 123.973,47.427 122.973,48.0937 122.5,49.5C 122.068,50.7095 121.401,51.7095 120.5,52.5C 120.167,51.1667 119.833,51.1667 119.5,52.5C 118.833,52.5 118.5,52.8333 118.5,53.5C 118.167,53.5 117.833,53.5 117.5,53.5C 117.5,52.8333 117.5,52.1667 117.5,51.5C 120.148,49.7435 119.814,48.4101 116.5,47.5 Z"/></g>
<g><path style="opacity:0.999" fill="#d0cdca" d="M 142.5,46.5 C 141.77,47.7124 140.77,48.7124 139.5,49.5C 139.972,52.1012 141.305,54.6012 143.5,57C 143.167,57.3333 142.833,57.6667 142.5,58C 143.814,58.985 144.814,60.1516 145.5,61.5C 145.833,62.8333 146.167,62.8333 146.5,61.5C 146.833,61.5 147.167,61.5 147.5,61.5C 147.611,62.1174 147.944,62.6174 148.5,63C 147.584,63.2784 146.918,63.7784 146.5,64.5C 146.167,65.1667 145.833,65.8333 145.5,66.5C 145.611,67.1174 145.944,67.6174 146.5,68C 144.822,68.4839 144.156,69.3172 144.5,70.5C 143.778,70.9175 143.278,71.5842 143,72.5C 142.601,72.2716 142.435,71.9382 142.5,71.5C 142.443,70.391 142.11,69.391 141.5,68.5C 141.598,66.4471 140.931,64.7804 139.5,63.5C 139.167,62.8333 138.833,62.1667 138.5,61.5C 138.567,60.0413 138.234,58.7079 137.5,57.5C 137.082,56.7784 136.416,56.2784 135.5,56C 135.833,55.6667 136.167,55.3333 136.5,55C 134.58,53.2264 133.58,51.3931 133.5,49.5C 133.423,48.2502 132.756,47.4169 131.5,47C 135.152,46.5014 138.818,46.3347 142.5,46.5 Z"/></g>
<g><path style="opacity:0.996" fill="#a4a2a0" d="M 157.5,46.5 C 156.251,48.1361 154.584,49.3028 152.5,50C 152.833,50.3333 153.167,50.6667 153.5,51C 152.584,51.2784 151.918,51.7784 151.5,52.5C 151.167,53.1667 150.833,53.8333 150.5,54.5C 150.5,54.8333 150.5,55.1667 150.5,55.5C 149.596,54.791 149.263,53.791 149.5,52.5C 150.097,52.2648 150.43,51.7648 150.5,51C 148.888,49.518 147.888,47.6847 147.5,45.5C 151.042,45.1872 154.375,45.5206 157.5,46.5 Z"/></g>
<g><path style="opacity:0.997" fill="#e0dcd9" d="M 159.5,46.5 C 161.415,46.2155 163.081,46.5489 164.5,47.5C 163.167,47.8333 163.167,48.1667 164.5,48.5C 163.833,49.1667 163.167,49.8333 162.5,50.5C 161.833,50.5 161.5,50.8333 161.5,51.5C 160.5,52.8333 159.5,52.8333 158.5,51.5C 157.167,50.1667 157.167,48.8333 158.5,47.5C 159.167,47.5 159.5,47.1667 159.5,46.5 Z"/></g>
<g><path style="opacity:0.999" fill="#e3dfdb" d="M 169.5,46.5 C 169.833,46.5 170.167,46.5 170.5,46.5C 171.391,47.1098 172.391,47.4431 173.5,47.5C 173.81,48.7383 174.31,48.7383 175,47.5C 175.333,54.1667 175.667,60.8333 176,67.5C 176.414,67.9574 176.914,68.2907 177.5,68.5C 178.265,67.3881 179.265,66.7214 180.5,66.5C 180.5,67.1667 180.5,67.8333 180.5,68.5C 179.833,68.5 179.5,68.8333 179.5,69.5C 177.167,70.8333 174.833,70.8333 172.5,69.5C 171.895,67.5188 170.895,67.1854 169.5,68.5C 169.167,68.5 168.833,68.5 168.5,68.5C 168.776,66.3577 169.443,64.0244 170.5,61.5C 170.48,60.2739 170.147,59.2739 169.5,58.5C 169.5,57.8333 169.167,57.5 168.5,57.5C 168.833,56.8333 169.167,56.1667 169.5,55.5C 170.742,53.6112 170.742,51.6112 169.5,49.5C 168.884,48.2022 168.884,47.2022 169.5,46.5 Z"/></g>
<g><path style="opacity:1" fill="#e9e5e2" d="M 91.5,47.5 C 91.5,46.8333 91.8333,46.5 92.5,46.5C 92.8333,46.5 93.1667,46.5 93.5,46.5C 94.391,47.1098 95.391,47.4431 96.5,47.5C 96.8333,48.8333 97.1667,48.8333 97.5,47.5C 98.3283,53.9874 98.8283,60.654 99,67.5C 99.6708,68.2524 100.504,68.5858 101.5,68.5C 102.167,68.1667 102.833,67.8333 103.5,67.5C 103.5,68.1667 103.833,68.5 104.5,68.5C 104.158,69.3382 103.492,69.6716 102.5,69.5C 100.167,70.8333 97.8333,70.8333 95.5,69.5C 95.5,68.8333 95.1667,68.5 94.5,68.5C 94.1667,67.1667 93.8333,67.1667 93.5,68.5C 92.8333,68.5 92.1667,68.5 91.5,68.5C 91.7761,66.3577 92.4428,64.0244 93.5,61.5C 93.4805,60.2739 93.1471,59.2739 92.5,58.5C 92.5,57.8333 92.1667,57.5 91.5,57.5C 91.8333,56.8333 92.1667,56.1667 92.5,55.5C 93.8976,52.993 93.5643,50.6597 91.5,48.5C 92.8333,48.1667 92.8333,47.8333 91.5,47.5 Z"/></g>
<g><path style="opacity:0.004" fill="#050505" d="M 125.5,47.5 C 125.027,48.9063 124.027,49.573 122.5,49.5C 122.973,48.0937 123.973,47.427 125.5,47.5 Z"/></g>
<g><path style="opacity:0.006" fill="#1b1707" d="M 9.5,49.5 C 9.71481,51.1788 9.04814,52.1788 7.5,52.5C 7.93205,51.2905 8.59872,50.2905 9.5,49.5 Z"/></g>
<g><path style="opacity:0.01" fill="#000000" d="M 38.5,50.5 C 38.8333,50.5 39.1667,50.5 39.5,50.5C 40.3382,50.8417 40.6716,51.5084 40.5,52.5C 39.5,52.1667 38.8333,51.5 38.5,50.5 Z"/></g>
<g><path style="opacity:0.012" fill="#1e1e1e" d="M 85.5,50.5 C 86.547,51.0778 86.3803,51.7445 85,52.5C 84.6012,52.2716 84.4346,51.9382 84.5,51.5C 84.5,50.8333 84.8333,50.5 85.5,50.5 Z"/></g>
<g><path style="opacity:0.008" fill="#191919" d="M 162.5,50.5 C 163.547,51.0778 163.38,51.7445 162,52.5C 161.601,52.2716 161.435,51.9382 161.5,51.5C 161.5,50.8333 161.833,50.5 162.5,50.5 Z"/></g>
<g><path style="opacity:0.008" fill="#000000" d="M 81.5,51.5 C 80.8333,52.1667 80.8333,52.1667 81.5,51.5 Z"/></g>
<g><path style="opacity:0.008" fill="#000000" d="M 158.5,51.5 C 157.833,52.1667 157.833,52.1667 158.5,51.5 Z"/></g>
<g><path style="opacity:0.012" fill="#131008" d="M 5.5,52.5 C 5.06795,53.7095 4.40128,54.7095 3.5,55.5C 3.28519,53.8212 3.95186,52.8212 5.5,52.5 Z"/></g>
<g><path style="opacity:0.031" fill="#242018" d="M 48.5,50.5 C 49.8333,51.1667 50.8333,52.1667 51.5,53.5C 51.1667,53.5 50.8333,53.5 50.5,53.5C 49.0937,53.0269 48.427,52.0269 48.5,50.5 Z"/></g>
<g><path style="opacity:0.006" fill="#070603" d="M 73.5,50.5 C 74.4709,51.9621 74.1376,53.2954 72.5,54.5C 72.4326,53.0413 72.7659,51.7079 73.5,50.5 Z"/></g>
<g><path style="opacity:0.004" fill="#000000" d="M 119.5,52.5 C 119.833,52.5 120.167,52.5 120.5,52.5C 120.315,53.1701 119.981,53.1701 119.5,52.5 Z"/></g>
<g><path style="opacity:0.006" fill="#151515" d="M 151.5,52.5 C 152.757,53.6226 152.424,54.2893 150.5,54.5C 150.833,53.8333 151.167,53.1667 151.5,52.5 Z"/></g>
<g><path style="opacity:0.004" fill="#000000" d="M 118.5,53.5 C 118.833,53.5 119.167,53.5 119.5,53.5C 119.315,54.1701 118.981,54.1701 118.5,53.5 Z"/></g>
<g><path style="opacity:0.992" fill="#998342" d="M 67.5,16.5 C 68.8249,15.0474 69.6582,15.3808 70,17.5C 71.016,16.3659 71.6827,16.6992 72,18.5C 72.3333,18.1667 72.6667,17.8333 73,17.5C 73.4839,19.1775 74.3172,19.8442 75.5,19.5C 76.7804,20.9313 78.4471,21.5979 80.5,21.5C 81.7721,21.0424 82.7721,21.7091 83.5,23.5C 86.1251,24.4405 86.1251,25.6072 83.5,27C 83.8346,28.5026 83.8346,29.836 83.5,31C 81.6992,31.3173 81.3659,31.984 82.5,33C 81.5842,33.2784 80.9175,33.7784 80.5,34.5C 79.8333,35.8333 79.1667,37.1667 78.5,38.5C 78.6107,39.1174 78.944,39.6174 79.5,40C 77.8225,40.4839 77.1558,41.3172 77.5,42.5C 76.5987,43.2905 75.9321,44.2905 75.5,45.5C 75.6107,46.1174 75.944,46.6174 76.5,47C 74.9443,47.7202 73.9443,48.8868 73.5,50.5C 72.7659,51.7079 72.4326,53.0413 72.5,54.5C 71.8333,55.8333 71.1667,57.1667 70.5,58.5C 69.5987,59.2905 68.9321,60.2905 68.5,61.5C 69.9526,62.8249 69.6192,63.6582 67.5,64C 68.6341,65.016 68.3008,65.6827 66.5,66C 66.8346,67.5026 66.8346,68.836 66.5,70C 65.6619,71.1554 64.6619,72.3221 63.5,73.5C 62.8333,74.8333 62.1667,76.1667 61.5,77.5C 61.6107,78.1174 61.944,78.6174 62.5,79C 60.8225,79.4839 60.1558,80.3172 60.5,81.5C 59.5987,82.2905 58.9321,83.2905 58.5,84.5C 58.6107,85.1174 58.944,85.6174 59.5,86C 57.9443,86.7202 56.9443,87.8868 56.5,89.5C 56.1667,90.5 55.5,91.1667 54.5,91.5C 53.8333,91.5 53.5,91.8333 53.5,92.5C 52.8333,92.5 52.1667,92.5 51.5,92.5C 50.7095,91.5987 49.7095,90.9321 48.5,90.5C 48.5,89.8333 48.5,89.1667 48.5,88.5C 49.3957,87.4937 50.0623,87.4937 50.5,88.5C 51.172,89.2674 52.0053,89.9341 53,90.5C 53.3988,90.2716 53.5654,89.9382 53.5,89.5C 54.8333,89.1667 54.8333,88.8333 53.5,88.5C 53.5,87.8333 53.8333,87.5 54.5,87.5C 55.4013,86.7095 56.0679,85.7095 56.5,84.5C 56.3893,83.8826 56.056,83.3826 55.5,83C 56.5,82 57.5,81 58.5,80C 57.1854,78.6054 57.5188,77.6054 59.5,77C 58.3659,75.984 58.6992,75.3173 60.5,75C 59.3659,73.984 59.6992,73.3173 61.5,73C 61.1667,72.6667 60.8333,72.3333 60.5,72C 62.4045,69.1631 63.7378,66.6631 64.5,64.5C 65.4013,63.7095 66.0679,62.7095 66.5,61.5C 65.0474,60.1751 65.3808,59.3418 67.5,59C 66.3659,57.984 66.6992,57.3173 68.5,57C 68.1667,56.6667 67.8333,56.3333 67.5,56C 69.4045,53.1631 70.7378,50.6631 71.5,48.5C 72.4013,47.7095 73.0679,46.7095 73.5,45.5C 72.0474,44.1751 72.3808,43.3418 74.5,43C 73.3659,41.984 73.6992,41.3173 75.5,41C 75.0426,40.586 74.7093,40.086 74.5,39.5C 76.9671,37.4086 78.3005,35.0752 78.5,32.5C 79.4013,31.7095 80.0679,30.7095 80.5,29.5C 80.3893,28.8826 80.056,28.3826 79.5,28C 80.4158,27.7216 81.0825,27.2216 81.5,26.5C 81.1898,24.8564 80.1898,23.8564 78.5,23.5C 77.1751,24.9526 76.3418,24.6192 76,22.5C 75.6667,22.8333 75.3333,23.1667 75,23.5C 73.8446,22.6619 72.6779,21.6619 71.5,20.5C 70.1667,19.8333 68.8333,19.1667 67.5,18.5C 66.8826,18.6107 66.3826,18.944 66,19.5C 65.7216,18.5842 65.2216,17.9175 64.5,17.5C 64.8041,15.2043 65.8041,14.871 67.5,16.5 Z"/></g>
<g><path style="opacity:0.059" fill="#212121" d="M 92.5,55.5 C 92.1667,56.1667 91.8333,56.8333 91.5,57.5C 90.8333,57.5 90.1667,57.5 89.5,57.5C 89.9731,56.0937 90.9731,55.427 92.5,55.5 Z"/></g>
<g><path style="opacity:0.998" fill="#e4e0dd" d="M 116.5,54.5 C 117.254,56.5053 118.421,57.172 120,56.5C 120.662,57.9839 121.496,59.3172 122.5,60.5C 123.833,63.8333 126.167,66.1667 129.5,67.5C 129.5,68.1667 129.833,68.5 130.5,68.5C 126.833,69.8333 123.167,69.8333 119.5,68.5C 120.043,68.44 120.376,68.1067 120.5,67.5C 119.807,66.4822 119.141,65.4822 118.5,64.5C 118.573,62.9731 117.906,61.9731 116.5,61.5C 116.167,60.5 115.5,59.8333 114.5,59.5C 114.5,58.8333 114.167,58.5 113.5,58.5C 113.167,58.5 112.833,58.5 112.5,58.5C 112.5,58.1667 112.5,57.8333 112.5,57.5C 113.167,57.5 113.5,57.1667 113.5,56.5C 114.5,55.8333 115.5,55.1667 116.5,54.5 Z"/></g>
<g><path style="opacity:0.004" fill="#0d0d0d" d="M 169.5,55.5 C 169.167,56.1667 168.833,56.8333 168.5,57.5C 167.5,57.5 166.5,57.5 165.5,57.5C 166.514,56.3263 167.847,55.6596 169.5,55.5 Z"/></g>
<g><path style="opacity:0.027" fill="#242119" d="M 52.5,55.5 C 53.5,56.1667 54.5,56.8333 55.5,57.5C 55.5,57.8333 55.5,58.1667 55.5,58.5C 55.1667,58.5 54.8333,58.5 54.5,58.5C 53.0937,58.0269 52.427,57.0269 52.5,55.5 Z"/></g>
<g><path style="opacity:0.631" fill="#7a7978" d="M 149.5,52.5 C 149.263,53.791 149.596,54.791 150.5,55.5C 150.938,55.4346 151.272,55.6012 151.5,56C 149.699,56.3173 149.366,56.984 150.5,58C 150.026,59.7286 149.026,60.8953 147.5,61.5C 147.167,61.5 146.833,61.5 146.5,61.5C 146.167,61.5 145.833,61.5 145.5,61.5C 147.469,58.8231 148.802,55.8231 149.5,52.5 Z"/></g>
<g><path style="opacity:0.006" fill="#1b1811" d="M 2.5,59.5 C 2.06795,60.7095 1.40128,61.7095 0.5,62.5C 0.285191,60.8212 0.951857,59.8212 2.5,59.5 Z"/></g>
<g><path style="opacity:0.006" fill="#1b1709" d="M 70.5,58.5 C 70.7148,60.1788 70.0481,61.1788 68.5,61.5C 68.9321,60.2905 69.5987,59.2905 70.5,58.5 Z"/></g>
<g><path style="opacity:0.004" fill="#000000" d="M 81.5,60.5 C 80.8333,59.1667 80.8333,59.1667 81.5,60.5 Z"/></g>
<g><path style="opacity:0.004" fill="#0d0d0d" d="M 91.5,58.5 C 91.8333,58.5 92.1667,58.5 92.5,58.5C 91.4863,59.6737 90.153,60.3404 88.5,60.5C 88.9731,59.0937 89.9731,58.427 91.5,58.5 Z"/></g>
<g><path style="opacity:0.006" fill="#0c0c0c" d="M 137.5,57.5 C 138.234,58.7079 138.567,60.0413 138.5,61.5C 136.862,60.2954 136.529,58.9621 137.5,57.5 Z"/></g>
<g><path style="opacity:0.004" fill="#0a0a0a" d="M 168.5,58.5 C 168.833,58.5 169.167,58.5 169.5,58.5C 168.486,59.6737 167.153,60.3404 165.5,60.5C 165.973,59.0937 166.973,58.427 168.5,58.5 Z"/></g>
<g><path style="opacity:0.997" fill="#cfccc9" d="M 89.5,57.5 C 90.1667,57.5 90.8333,57.5 91.5,57.5C 91.5,57.8333 91.5,58.1667 91.5,58.5C 89.9731,58.427 88.9731,59.0937 88.5,60.5C 87.1667,60.5 86.5,61.1667 86.5,62.5C 85.852,63.9794 85.5186,65.4794 85.5,67C 87.5248,68.3361 89.5248,68.8361 91.5,68.5C 91.1667,69.1667 90.8333,69.8333 90.5,70.5C 88.5306,70.3627 86.3639,70.696 84,71.5C 82.5399,71.0178 81.0399,69.8511 79.5,68C 80.1136,66.87 80.1136,65.5366 79.5,64C 79.8618,62.5657 80.5285,61.3991 81.5,60.5C 82.2216,60.0825 82.7216,59.4158 83,58.5C 84.1475,59.4581 85.1475,59.1247 86,57.5C 86.9862,58.1712 88.1529,58.1712 89.5,57.5 Z"/></g>
<g><path style="opacity:0.012" fill="#1d1d1d" d="M 88.5,60.5 C 88.1667,61.5 87.5,62.1667 86.5,62.5C 86.5,61.1667 87.1667,60.5 88.5,60.5 Z"/></g>
<g><path style="opacity:0.396" fill="#7f7c7a" d="M 112.5,58.5 C 112.833,58.5 113.167,58.5 113.5,58.5C 114.167,58.5 114.5,58.8333 114.5,59.5C 112.577,61.7266 111.91,64.0599 112.5,66.5C 111.233,63.9387 111.233,61.272 112.5,58.5 Z"/></g>
<g><path style="opacity:0.999" fill="#c9c6c3" d="M 165.5,57.5 C 166.5,57.5 167.5,57.5 168.5,57.5C 168.5,57.8333 168.5,58.1667 168.5,58.5C 166.973,58.427 165.973,59.0937 165.5,60.5C 165.167,61.5 164.5,62.1667 163.5,62.5C 160.833,64.1667 160.833,65.8333 163.5,67.5C 165.235,68.057 166.902,68.3903 168.5,68.5C 168.5,69.1667 168.833,69.5 169.5,69.5C 166.772,70.2052 163.939,70.8719 161,71.5C 159.54,71.0178 158.04,69.8511 156.5,68C 156.579,65.695 156.746,63.195 157,60.5C 157.333,60.8333 157.667,61.1667 158,61.5C 160.067,58.689 162.567,57.3557 165.5,57.5 Z"/></g>
<g><path style="opacity:0.008" fill="#120f08" d="M 66.5,61.5 C 66.0679,62.7095 65.4013,63.7095 64.5,64.5C 64.2852,62.8212 64.9519,61.8212 66.5,61.5 Z"/></g>
<g><path style="opacity:0.047" fill="#292929" d="M 116.5,61.5 C 117.906,61.9731 118.573,62.9731 118.5,64.5C 116.65,63.7582 115.984,62.7582 116.5,61.5 Z"/></g>
<g><path style="opacity:0.239" fill="#3b3938" d="M 122.5,60.5 C 125.167,62.5 127.5,64.8333 129.5,67.5C 126.167,66.1667 123.833,63.8333 122.5,60.5 Z"/></g>
<g><path style="opacity:0.007" fill="#151515" d="M 139.5,63.5 C 140.931,64.7804 141.598,66.4471 141.5,68.5C 140.069,67.2196 139.402,65.5529 139.5,63.5 Z"/></g>
<g><path style="opacity:0.006" fill="#131313" d="M 146.5,64.5 C 147.757,65.6226 147.424,66.2893 145.5,66.5C 145.833,65.8333 146.167,65.1667 146.5,64.5 Z"/></g>
<g><path style="opacity:0.341" fill="#575554" d="M 163.5,62.5 C 162.167,64.1667 162.167,65.8333 163.5,67.5C 160.833,65.8333 160.833,64.1667 163.5,62.5 Z"/></g>
<g><path style="opacity:0.027" fill="#151515" d="M 51.5,66.5 C 51.8333,66.5 52.1667,66.5 52.5,66.5C 53.3382,66.8417 53.6716,67.5084 53.5,68.5C 52.5,68.1667 51.8333,67.5 51.5,66.5 Z"/></g>
<g><path style="opacity:0.998" fill="#b89f4e" d="M 27.5,66.5 C 28.5,66.5 29.5,66.5 30.5,66.5C 32.0754,67.2247 33.7421,68.2247 35.5,69.5C 31.6286,69.815 27.9619,69.4816 24.5,68.5C 25.2223,67.4489 26.2223,66.7822 27.5,66.5 Z"/></g>
<g><path style="opacity:0.153" fill="#555452" d="M 104.5,67.5 C 104.167,67.5 103.833,67.5 103.5,67.5C 102.833,67.8333 102.167,68.1667 101.5,68.5C 102.053,66.4482 103.053,66.1148 104.5,67.5 Z"/></g>
<g><path style="opacity:0.016" fill="#181818" d="M 91.5,68.5 C 92.1667,68.5 92.8333,68.5 93.5,68.5C 93.8333,68.5 94.1667,68.5 94.5,68.5C 95.1667,68.5 95.5,68.8333 95.5,69.5C 94.0641,69.2858 92.3974,69.6191 90.5,70.5C 90.8333,69.8333 91.1667,69.1667 91.5,68.5 Z"/></g>
<g><path style="opacity:0.014" fill="#232222" d="M 172.5,69.5 C 171.798,70.1157 170.798,70.1157 169.5,69.5C 169.5,69.1667 169.5,68.8333 169.5,68.5C 170.895,67.1854 171.895,67.5188 172.5,69.5 Z"/></g>
<g><path style="opacity:0.004" fill="#080808" d="M -0.5,69.5 C -0.5,69.1667 -0.5,68.8333 -0.5,68.5C 0.608953,68.5569 1.60895,68.8902 2.5,69.5C 1.65225,70.625 0.652248,70.625 -0.5,69.5 Z"/></g>
<g><path style="opacity:0.118" fill="#383516" d="M 24.5,68.5 C 27.9619,69.4816 31.6286,69.815 35.5,69.5C 34.1187,70.2322 31.952,70.5655 29,70.5C 26.5,70.1667 24,69.8333 21.5,69.5C 22.2421,68.7132 23.0754,68.0465 24,67.5C 24.3988,67.7284 24.5654,68.0618 24.5,68.5 Z"/></g>
<g><path style="opacity:0.118" fill="#4d4d4c" d="M 104.5,67.5 C 104.833,67.5 105.167,67.5 105.5,67.5C 105.5,67.8333 105.5,68.1667 105.5,68.5C 108.833,69.8333 112.167,69.8333 115.5,68.5C 116.043,68.56 116.376,68.8933 116.5,69.5C 111.682,70.8124 107.015,70.8124 102.5,69.5C 103.492,69.6716 104.158,69.3382 104.5,68.5C 104.5,68.1667 104.5,67.8333 104.5,67.5 Z"/></g>
<g><path style="opacity:0.118" fill="#4c4b4b" d="M 119.5,68.5 C 123.167,69.8333 126.833,69.8333 130.5,68.5C 130.435,68.0618 130.601,67.7284 131,67.5C 131.925,68.0465 132.758,68.7132 133.5,69.5C 128.5,70.8333 123.5,70.8333 118.5,69.5C 118.624,68.8933 118.957,68.56 119.5,68.5 Z"/></g>
<g><path style="opacity:0.012" fill="#000000" d="M 179.5,69.5 C 179.833,69.5 180.167,69.5 180.5,69.5C 180.5,69.8333 180.5,70.1667 180.5,70.5C 180.167,70.1667 179.833,69.8333 179.5,69.5 Z"/></g>
<g><path style="opacity:0.006" fill="#191409" d="M 9.5,72.5 C 10.8333,73.1667 12.1667,73.8333 13.5,74.5C 13.44,75.0431 13.1067,75.3764 12.5,75.5C 10.7869,75.1207 9.7869,74.1207 9.5,72.5 Z"/></g>
<g><path style="opacity:0.006" fill="#1a140b" d="M 17.5,73.5 C 19.1788,73.2852 20.1788,73.9519 20.5,75.5C 19.2905,75.0679 18.2905,74.4013 17.5,73.5 Z"/></g>
<g><path style="opacity:0.006" fill="#14110a" d="M 63.5,73.5 C 64.0431,73.56 64.3764,73.8933 64.5,74.5C 64.1207,76.2131 63.1207,77.2131 61.5,77.5C 62.1667,76.1667 62.8333,74.8333 63.5,73.5 Z"/></g>
<g><path style="opacity:0.027" fill="#262525" d="M 139.5,75.5 C 139.5,75.8333 139.5,76.1667 139.5,76.5C 137.05,76.298 134.717,76.6314 132.5,77.5C 134.279,75.6565 136.612,74.9898 139.5,75.5 Z"/></g>
<g><path style="opacity:0.306" fill="#696866" d="M 144.5,70.5 C 143.771,73.8273 142.438,76.8273 140.5,79.5C 140.5,79.1667 140.5,78.8333 140.5,78.5C 140.5,77.8333 140.5,77.1667 140.5,76.5C 140.5,75.8333 140.167,75.5 139.5,75.5C 140.557,74.2164 141.557,72.8831 142.5,71.5C 142.435,71.9382 142.601,72.2716 143,72.5C 143.278,71.5842 143.778,70.9175 144.5,70.5 Z"/></g>
<g><path style="opacity:0.997" fill="#c4c1bf" d="M 139.5,76.5 C 139.833,76.5 140.167,76.5 140.5,76.5C 140.5,77.1667 140.5,77.8333 140.5,78.5C 139.167,78.8333 139.167,79.1667 140.5,79.5C 138.034,80.6341 135.367,80.8007 132.5,80C 133.598,79.2303 133.598,78.397 132.5,77.5C 134.717,76.6314 137.05,76.298 139.5,76.5 Z"/></g>
<g><path style="opacity:0.008" fill="#19150a" d="M 20.5,77.5 C 21.8333,78.1667 23.1667,78.8333 24.5,79.5C 24.44,80.0431 24.1067,80.3764 23.5,80.5C 21.7869,80.1207 20.7869,79.1207 20.5,77.5 Z"/></g>
<g><path style="opacity:0.008" fill="#110f06" d="M 28.5,78.5 C 30.5529,78.4021 32.2196,79.0687 33.5,80.5C 31.4471,80.5979 29.7804,79.9313 28.5,78.5 Z"/></g>
<g><path style="opacity:0.007" fill="#110f08" d="M 60.5,81.5 C 60.7148,83.1788 60.0481,84.1788 58.5,84.5C 58.9321,83.2905 59.5987,82.2905 60.5,81.5 Z"/></g>
<g><path style="opacity:0.006" fill="#19150e" d="M 31.5,82.5 C 33.3684,83.2632 35.0351,84.2632 36.5,85.5C 33.9664,85.7409 32.2998,84.7409 31.5,82.5 Z"/></g>
<g><path style="opacity:0.012" fill="#0f0c05" d="M 39.5,83.5 C 41.5529,83.4021 43.2196,84.0687 44.5,85.5C 42.4471,85.5979 40.7804,84.9313 39.5,83.5 Z"/></g>
<g><path style="opacity:0.008" fill="#171509" d="M 56.5,84.5 C 56.0679,85.7095 55.4013,86.7095 54.5,87.5C 54.2852,85.8212 54.9519,84.8212 56.5,84.5 Z"/></g>
<g><path style="opacity:0.005" fill="#0e0d03" d="M 50.5,88.5 C 51.5,88.5 52.5,88.5 53.5,88.5C 53.5,88.8333 53.5,89.1667 53.5,89.5C 53.5654,89.9382 53.3988,90.2716 53,90.5C 52.0053,89.9341 51.172,89.2674 50.5,88.5 Z"/></g>
<g><path style="opacity:0.678" fill="#524828" d="M 48.5,88.5 C 48.5,89.1667 48.5,89.8333 48.5,90.5C 48.5654,90.9382 48.3988,91.2716 48,91.5C 45.9419,90.7709 44.1086,89.7709 42.5,88.5C 43.9305,88.4208 45.2638,88.7542 46.5,89.5C 47.2975,89.0431 47.6309,88.3764 47.5,87.5C 48.206,86.4427 48.5393,86.7761 48.5,88.5 Z"/></g>
<g><path style="opacity:0.016" fill="#110f0d" d="M 56.5,89.5 C 57.625,90.3478 57.625,91.3478 56.5,92.5C 55.8333,92.5 55.1667,92.5 54.5,92.5C 54.5,92.1667 54.5,91.8333 54.5,91.5C 55.5,91.1667 56.1667,90.5 56.5,89.5 Z"/></g>
</svg>
