<?xml version="1.0" encoding="UTF-8"?>
<svg version="1.1" xmlns="http://www.w3.org/2000/svg" width="75" height="84">
<path d="M0 0 C2.70370263 -0.33910847 5.107972 -0.4732866 7.8125 -0.4375 C8.57208008 -0.43282715 9.33166016 -0.4281543 10.11425781 -0.42333984 C18.1174645 -0.21679464 25.15031493 1.9830749 32.5078125 5.04296875 C35.18844279 6.0723644 37.83247356 6.77135825 40.625 7.4375 C44.82342782 8.46239502 49.01223434 9.50905546 53.1875 10.625 C54.08855469 10.86476563 54.98960938 11.10453125 55.91796875 11.3515625 C58 12 58 12 59 13 C59.56020522 20.74591442 59.27964987 27.77357166 56.65625 35.109375 C55.89069503 36.98135553 55.89069503 36.98135553 56 39 C55.34 39 54.68 39 54 39 C54.0928125 40.485 54.0928125 40.485 54.1875 42 C54.1949039 45.68714195 53.22615269 48.43278087 51.82055664 51.80493164 C51.03725485 53.90033969 50.53502624 55.87670118 50.09375 58.06640625 C48.93633364 63.47286121 47.4187034 68.75555792 45.875 74.0625 C45.59785156 75.02349609 45.32070313 75.98449219 45.03515625 76.97460938 C44.35920711 79.31712279 43.68078301 81.65888777 43 84 C31.19027694 84.22931501 21.28711135 83.91593659 10 80 C3.88791395 78.09268237 -2.26276712 76.36556901 -8.45703125 74.74609375 C-11.05104037 73.98502502 -13.50735009 73.04270634 -16 72 C-16.08820927 68.83351345 -16.1407905 65.66734908 -16.1875 62.5 C-16.22520508 61.1696875 -16.22520508 61.1696875 -16.26367188 59.8125 C-16.33026878 53.77438037 -15.36452376 49.54753651 -13 44 C-12.64456573 41.66993089 -12.3086247 39.33672984 -12 37 C-11.33615883 35.33220591 -10.66904332 33.66571404 -10 32 C-9.34723984 29.76573637 -8.72482977 27.52248931 -8.125 25.2734375 C-7.77617594 23.98173457 -7.42721351 22.69006899 -7.078125 21.3984375 C-6.53635483 19.38009734 -5.99635782 17.36131225 -5.45898438 15.34179688 C-4.93576276 13.38019147 -4.4057942 11.42050515 -3.875 9.4609375 C-3.40707031 7.70982666 -3.40707031 7.70982666 -2.9296875 5.92333984 C-2 3 -2 3 0 0 Z M4 2 C-0.33465507 9.84366155 -2.13738392 18.46860243 -4.2421875 27.109375 C-4.92941239 29.73074827 -5.72946604 32.2563157 -6.625 34.8125 C-7.52420375 37.39944002 -8.06798152 39.50500557 -8.4375 42.25 C-9.1649309 47.09953934 -10.70794412 51.56277047 -12.2578125 56.20703125 C-13.31111199 58.92937725 -13.31111199 58.92937725 -12 61 C-12.99 61.495 -12.99 61.495 -14 62 C-14.40729228 64.32156597 -14.74438677 66.6568787 -15 69 C-14.01 69.103125 -13.02 69.20625 -12 69.3125 C-8.63327558 69.79250823 -5.7336182 70.84313239 -2.57421875 72.109375 C1.59967094 73.55345216 5.89645729 74.5319197 10.18920898 75.55395508 C14.20804164 76.5179467 18.09141398 77.66271628 22 79 C24.39160214 79.72249061 26.78761989 80.43050093 29.1875 81.125 C30.39792969 81.47820312 31.60835937 81.83140625 32.85546875 82.1953125 C35.94341482 83.12395603 35.94341482 83.12395603 39 83 C40.66888702 77.68895074 42.21073481 72.52485632 43 67 C43.2784375 65.948125 43.2784375 65.948125 43.5625 64.875 C44.15148641 62.67166673 44.15148641 62.67166673 44 59 C44.66 58.67 45.32 58.34 46 58 C46.48603976 55.95168959 46.95838409 53.89948817 47.375 51.8359375 C48.07580586 48.65603093 48.9597031 45.56238083 49.875 42.4375 C51.63937515 36.37782953 53.21354923 30.2893079 54.69287109 24.15405273 C55.89863858 19.20272284 55.89863858 19.20272284 57 17 C56.01 17 55.02 17 54 17 C53.505 16.01 53.505 16.01 53 15 C51.01924593 14.30862927 51.01924593 14.30862927 48.6875 13.875 C47.51767578 13.62363281 47.51767578 13.62363281 46.32421875 13.3671875 C43.73367445 12.89596812 43.73367445 12.89596812 40 13 C39.505 12.01 39.505 12.01 39 11 C36.43208827 10.15315153 36.43208827 10.15315153 33.375 9.5 C29.86663405 8.67818301 26.38607671 7.85819746 22.9375 6.8125 C20.0260605 5.86670697 20.0260605 5.86670697 17 6 C16.67 5.34 16.34 4.68 16 4 C13.19019327 3.30772968 13.19019327 3.30772968 9.9375 2.875 C8.83277344 2.70742188 7.72804688 2.53984375 6.58984375 2.3671875 C5.73519531 2.24601563 4.88054688 2.12484375 4 2 Z " fill="#DBD4BF" transform="translate(16,0)"/>
<path d="M0 0 C0 0.66 0 1.32 0 2 C-0.9590625 2.1546875 -0.9590625 2.1546875 -1.9375 2.3125 C-2.618125 2.539375 -3.29875 2.76625 -4 3 C-5.16832772 6.50498317 -4.80787765 8.32666216 -4.22265625 11.953125 C-3.94711914 13.71849609 -3.94711914 13.71849609 -3.66601562 15.51953125 C-3.46685547 16.75058594 -3.26769531 17.98164062 -3.0625 19.25 C-0.70376845 33.93174159 -0.70376845 33.93174159 -1 40 C-7.96926786 39.0683444 -12.14724913 34.28030876 -16.4375 29 C-19.29585422 25.65363408 -22.39368223 23.22653282 -25.9140625 20.61328125 C-27.76889934 19.17873515 -29.3888319 17.69839695 -31 16 C-30.40711812 23.34164374 -29.761788 30.67386859 -29 38 C-28.030625 38.268125 -27.06125 38.53625 -26.0625 38.8125 C-25.051875 39.204375 -24.04125 39.59625 -23 40 C-22.67 40.99 -22.34 41.98 -22 43 C-29.425 43.99 -29.425 43.99 -37 45 C-37 44.01 -37 43.02 -37 42 C-36.32839844 41.61714844 -35.65679687 41.23429687 -34.96484375 40.83984375 C-34.31644531 40.23269531 -33.66804688 39.62554687 -33 39 C-32.95386378 36.00114601 -33.12499452 33.49625406 -33.5625 30.5625 C-33.66675293 29.76150879 -33.77100586 28.96051758 -33.87841797 28.13525391 C-34.77613083 21.63497889 -36.14776873 15.29758633 -38 9 C-39.65 8.67 -41.3 8.34 -43 8 C-42.67 7.01 -42.34 6.02 -42 5 C-30.74147712 3.13768794 -30.74147712 3.13768794 -26.578125 5.19921875 C-24.80825034 6.70946304 -23.32929435 8.09064993 -22 10 C-22 10.66 -22 11.32 -22 12 C-20.68 12.66 -19.36 13.32 -18 14 C-18 14.66 -18 15.32 -18 16 C-17.443125 16.2475 -16.88625 16.495 -16.3125 16.75 C-12.33951664 18.89755857 -9.50721301 21.23918048 -7 25 C-7.33 18.73 -7.66 12.46 -8 6 C-10.31 5.34 -12.62 4.68 -15 4 C-15 3.01 -15 2.02 -15 1 C-12.87630763 0.63807496 -10.7509887 0.28568253 -8.625 -0.0625 C-6.84996094 -0.35833984 -6.84996094 -0.35833984 -5.0390625 -0.66015625 C-2 -1 -2 -1 0 0 Z " fill="#C6B274" transform="translate(57,25)"/>
<path d="M0 0 C0.33 0 0.66 0 1 0 C1.09038099 5.15171623 0.84681133 9.91913204 0 15 C-0.66 15 -1.32 15 -2 15 C-1.78730469 15.50144531 -1.57460937 16.00289062 -1.35546875 16.51953125 C-0.82849476 20.19676735 -2.13020298 23.25273364 -3.3125 26.6875 C-3.78405274 28.11756845 -4.25282353 29.54855734 -4.71875 30.98046875 C-4.94304688 31.66931152 -5.16734375 32.3581543 -5.3984375 33.06787109 C-6.51879591 36.66629497 -7.27424999 40.30527267 -8 44 C-6.02 44.33 -4.04 44.66 -2 45 C-2 45.66 -2 46.32 -2 47 C-0.02 47.66 1.96 48.32 4 49 C0.59598052 50.13732426 -1.77456664 49.83989957 -5.25 49.0625 C-6.14203125 48.86785156 -7.0340625 48.67320313 -7.953125 48.47265625 C-8.96632813 48.23869141 -8.96632813 48.23869141 -10 48 C-10.08820927 44.83351345 -10.1407905 41.66734908 -10.1875 38.5 C-10.22520508 37.1696875 -10.22520508 37.1696875 -10.26367188 35.8125 C-10.33026878 29.77438037 -9.36452376 25.54753651 -7 20 C-6.64456573 17.66993089 -6.3086247 15.33672984 -6 13 C-5.37400383 11.31763529 -4.71247732 9.6476038 -4 8 C-3.64141484 6.67323492 -3.2981424 5.34164079 -3 4 C-2.34 4 -1.68 4 -1 4 C-0.67 2.68 -0.34 1.36 0 0 Z " fill="#DBD7C8" transform="translate(10,24)"/>
<path d="M0 0 C0 0.66 0 1.32 0 2 C-0.9590625 2.1546875 -0.9590625 2.1546875 -1.9375 2.3125 C-2.618125 2.539375 -3.29875 2.76625 -4 3 C-5.16832772 6.50498317 -4.80787765 8.32666216 -4.22265625 11.953125 C-4.03896484 13.13003906 -3.85527344 14.30695312 -3.66601562 15.51953125 C-3.46685547 16.75058594 -3.26769531 17.98164062 -3.0625 19.25 C-0.70376845 33.93174159 -0.70376845 33.93174159 -1 40 C-1.99 39.67 -2.98 39.34 -4 39 C-3.34 39 -2.68 39 -2 39 C-2.8777138 32.55675151 -2.8777138 32.55675151 -6.625 27.4375 C-7.40875 26.963125 -8.1925 26.48875 -9 26 C-8.67 25.34 -8.34 24.68 -8 24 C-7.67 24.33 -7.34 24.66 -7 25 C-7.33 18.73 -7.66 12.46 -8 6 C-10.31 5.34 -12.62 4.68 -15 4 C-15 3.01 -15 2.02 -15 1 C-12.87630763 0.63807496 -10.7509887 0.28568253 -8.625 -0.0625 C-6.84996094 -0.35833984 -6.84996094 -0.35833984 -5.0390625 -0.66015625 C-2 -1 -2 -1 0 0 Z " fill="#D3CBB0" transform="translate(57,25)"/>
<path d="M0 0 C1.32 0 2.64 0 4 0 C5.75 2.5 5.75 2.5 7 5 C6.34 5 5.68 5 5 5 C5.59288188 12.34164374 6.238212 19.67386859 7 27 C7.969375 27.268125 8.93875 27.53625 9.9375 27.8125 C10.948125 28.204375 11.95875 28.59625 13 29 C13.33 29.99 13.66 30.98 14 32 C6.575 32.99 6.575 32.99 -1 34 C-1 33.01 -1 32.02 -1 31 C-0.32582031 30.61972656 0.34835938 30.23945312 1.04296875 29.84765625 C1.68878906 29.23792969 2.33460937 28.62820312 3 28 C2.99085204 24.97202479 2.77861055 22.39835448 2.3125 19.4375 C2.09213972 17.81384388 1.87208575 16.19014616 1.65234375 14.56640625 C1.4819458 13.39102295 1.4819458 13.39102295 1.30810547 12.19189453 C0.91932392 9.42606193 0.63505918 6.6556328 0.375 3.875 C0.25125 2.59625 0.1275 1.3175 0 0 Z " fill="#D5CDB6" transform="translate(21,36)"/>
<path d="M0 0 C10.15487234 1.89557617 20.13462111 4.96700748 30 8 C31.87464379 8.563686 33.74963944 9.12620327 35.625 9.6875 C36.46289062 9.93886719 37.30078125 10.19023438 38.1640625 10.44921875 C38.76992188 10.63097656 39.37578125 10.81273438 40 11 C36.06329512 12.31223496 33.87511856 11.24296256 30 10 C29.67 10.99 29.34 11.98 29 13 C13.19864058 9.22224781 13.19864058 9.22224781 8.5 7.375 C4.68745798 5.87721564 0.98505319 4.92510163 -3 4 C-3 3.67 -3 3.34 -3 3 C-0.69 3 1.62 3 4 3 C2.68 2.01 1.36 1.02 0 0 Z " fill="#E3DFD5" transform="translate(8,70)"/>
<path d="M0 0 C6.41096298 1.52951909 12.72392786 3.14492937 18.953125 5.3046875 C21.93877953 6.31889839 24.96136433 7.1595263 28 8 C28 8.33 28 8.66 28 9 C26.35 9 24.7 9 23 9 C23.99 9.99 24.98 10.98 26 12 C21.23166983 11.51508507 17.4049641 10.93388668 13 9 C7.08975119 6.84026271 1.16684574 5.23920068 -5 4 C-4.67 3.34 -4.34 2.68 -4 2 C-2.68 2 -1.36 2 0 2 C0 1.34 0 0.68 0 0 Z " fill="#E1DBCA" transform="translate(38,2)"/>
<path d="M0 0 C1.93816735 0.1141866 3.87555099 0.24173423 5.8125 0.375 C6.89144531 0.44460938 7.97039062 0.51421875 9.08203125 0.5859375 C12 1 12 1 15 3 C15.68226821 9.36783667 14.40004397 15.07695571 12 21 C11.34 21.66 10.68 22.32 10 23 C10.33 18.05 10.66 13.1 11 8 C8.61542052 6.41028035 6.3695876 5.13258407 3.8125 3.875 C3.09707031 3.52179687 2.38164063 3.16859375 1.64453125 2.8046875 C1.10183594 2.53914062 0.55914062 2.27359375 0 2 C0 1.34 0 0.68 0 0 Z " fill="#DED6BC" transform="translate(60,10)"/>
<path d="M0 0 C0.33 0 0.66 0 1 0 C1.09038099 5.15171623 0.84681133 9.91913204 0 15 C-0.66 15 -1.32 15 -2 15 C-2.66 16.98 -3.32 18.96 -4 21 C-5.64518886 18.4838288 -6.02003059 17.22534416 -5.75 14.1875 C-4.94087129 10.74870298 -4.01505162 7.3835054 -3 4 C-2.34 4 -1.68 4 -1 4 C-0.67 2.68 -0.34 1.36 0 0 Z " fill="#D6CBA7" transform="translate(10,24)"/>
<path d="M0 0 C1.80411967 2.75924185 2.0127245 3.88972103 1.625 7.25 C1.41875 8.1575 1.2125 9.065 1 10 C3.97 10.495 3.97 10.495 7 11 C7 11.66 7 12.32 7 13 C8.98 13.66 10.96 14.32 13 15 C9.59598052 16.13732426 7.22543336 15.83989957 3.75 15.0625 C2.85796875 14.86785156 1.9659375 14.67320313 1.046875 14.47265625 C0.37140625 14.31667969 -0.3040625 14.16070312 -1 14 C-1.02694851 12.04174127 -1.04637218 10.08337774 -1.0625 8.125 C-1.07410156 7.03445312 -1.08570312 5.94390625 -1.09765625 4.8203125 C-1 2 -1 2 0 0 Z " fill="#D0C297" transform="translate(1,58)"/>
<path d="M0 0 C1.11667279 3.35001838 0.76286236 5.59254812 0 9 C-2.77109307 9.05392397 -5.54113818 9.09363455 -8.3125 9.125 C-9.09818359 9.14175781 -9.88386719 9.15851563 -10.69335938 9.17578125 C-11.45068359 9.18222656 -12.20800781 9.18867187 -12.98828125 9.1953125 C-14.03302612 9.21102295 -14.03302612 9.21102295 -15.09887695 9.22705078 C-17 9 -17 9 -20 7 C-20 6.34 -20 5.68 -20 5 C-14.27601207 5.74660712 -8.65146223 6.82877141 -3 8 C-2.690625 7.05125 -2.38125 6.1025 -2.0625 5.125 C-1 2 -1 2 0 0 Z " fill="#C7B785" transform="translate(58,75)"/>
<path d="M0 0 C1.41655793 -0.0272415 2.83327045 -0.04650467 4.25 -0.0625 C5.43335938 -0.07990234 5.43335938 -0.07990234 6.640625 -0.09765625 C8.94171489 -0.00241246 10.82783544 0.237837 13 1 C14.25 3.0625 14.25 3.0625 15 5 C5.60240964 5.15662651 5.60240964 5.15662651 3 4 C1.25 1.9375 1.25 1.9375 0 0 Z " fill="#D0C399" transform="translate(24,0)"/>
<path d="M0 0 C0.33 0 0.66 0 1 0 C1 2.31 1 4.62 1 7 C1.66 6.34 2.32 5.68 3 5 C2.71572583 6.58467728 2.42225182 8.1677057 2.125 9.75 C1.96257813 10.63171875 1.80015625 11.5134375 1.6328125 12.421875 C1.03203736 14.86947744 0.22002883 16.80599857 -1 19 C-1 16.69 -1 14.38 -1 12 C-1.99 13.32 -2.98 14.64 -4 16 C-3.37332965 12.76220318 -2.69666072 9.53585555 -2 6.3125 C-1.835 5.54550781 -1.67 4.77851562 -1.5 3.98828125 C-1 2 -1 2 0 0 Z " fill="#E0DDD3" transform="translate(59,65)"/>
<path d="M0 0 C0.66 0 1.32 0 2 0 C2 0.99 2 1.98 2 3 C2.99 3.33 3.98 3.66 5 4 C4.34 6.31 3.68 8.62 3 11 C2.34 11 1.68 11 1 11 C0.34 12.32 -0.32 13.64 -1 15 C-1.02715383 13.25008666 -1.04646551 11.50005055 -1.0625 9.75 C-1.07410156 8.77546875 -1.08570313 7.8009375 -1.09765625 6.796875 C-1.01195577 4.34241322 -0.70706066 2.33831086 0 0 Z " fill="#D6CBA8" transform="translate(60,59)"/>
<path d="M0 0 C1.74224976 1.49285514 3.39523959 3.021252 5 4.66015625 C4.67 5.32015625 4.34 5.98015625 4 6.66015625 C3.57589844 6.21542969 3.15179688 5.77070312 2.71484375 5.3125 C0.87717983 3.53945723 -0.8342407 2.01898207 -3 0.66015625 C-6.83675608 0.62162331 -6.83675608 0.62162331 -10 1.66015625 C-9.67 2.98015625 -9.34 4.30015625 -9 5.66015625 C-9.66 5.00015625 -10.32 4.34015625 -11 3.66015625 C-13.57061311 3.01247832 -13.57061311 3.01247832 -16 2.66015625 C-15.67 1.67015625 -15.34 0.68015625 -15 -0.33984375 C-3.77630927 -2.52983219 -3.77630927 -2.52983219 0 0 Z " fill="#EAE8E3" transform="translate(30,30.33984375)"/>
<path d="M0 0 C1.72863281 0.57041016 1.72863281 0.57041016 3.4921875 1.15234375 C4.36101563 1.45269531 5.22984375 1.75304687 6.125 2.0625 C2.18829512 3.37473496 0.00011856 2.30546256 -3.875 1.0625 C-4.205 2.0525 -4.535 3.0425 -4.875 4.0625 C-8.11708567 3.71200425 -9.49027704 3.50028819 -11.6875 1 C-12.2753125 0.0409375 -12.2753125 0.0409375 -12.875 -0.9375 C-7.93719968 -2.13067667 -4.78546117 -1.6114308 0 0 Z " fill="#DCD3B7" transform="translate(41.875,78.9375)"/>
<path d="M0 0 C4.571279 0.54855348 8.67435795 1.41744803 13 3 C13 3.33 13 3.66 13 4 C11.35 4 9.7 4 8 4 C8.99 4.99 9.98 5.98 11 7 C2.42857143 6.28571429 2.42857143 6.28571429 -1 3 C-0.01 2.67 0.98 2.34 2 2 C1.34 1.34 0.68 0.68 0 0 Z " fill="#E1DDCE" transform="translate(53,7)"/>
<path d="M0 0 C0.33 0 0.66 0 1 0 C1 3.96 1 7.92 1 12 C-0.98 12.99 -0.98 12.99 -3 14 C-2.88512252 12.41590006 -2.75765492 10.83271037 -2.625 9.25 C-2.55539063 8.36828125 -2.48578125 7.4865625 -2.4140625 6.578125 C-2.00149945 4.00933618 -1.28839043 2.24158985 0 0 Z " fill="#CEBF91" transform="translate(69,34)"/>
<path d="M0 0 C0.66 0.66 1.32 1.32 2 2 C1.01 5.3 0.02 8.6 -1 12 C-1.33 12 -1.66 12 -2 12 C-2.33 10.35 -2.66 8.7 -3 7 C-3.33 7.99 -3.66 8.98 -4 10 C-4.66 9.67 -5.32 9.34 -6 9 C-4.25 3.25 -4.25 3.25 -2 1 C-1.67 1.33 -1.34 1.66 -1 2 C-0.67 1.34 -0.34 0.68 0 0 Z " fill="#E0DDD2" transform="translate(7,41)"/>
<path d="M0 0 C0.66 0.99 1.32 1.98 2 3 C2.99 2.01 3.98 1.02 5 0 C4.01 3.96 3.02 7.92 2 12 C1.34 10.68 0.68 9.36 0 8 C-0.66 8.66 -1.32 9.32 -2 10 C-1.34 6.7 -0.68 3.4 0 0 Z " fill="#E2DFD5" transform="translate(10,18)"/>
<path d="M0 0 C1.79323253 0.28187936 3.58457126 0.5758281 5.375 0.875 C6.37273437 1.03742187 7.37046875 1.19984375 8.3984375 1.3671875 C11 2 11 2 13 4 C11 5.25 11 5.25 8 6 C5.14731103 4.97703944 2.59375835 3.55754223 0 2 C0 1.34 0 0.68 0 0 Z " fill="#C9BB8D" transform="translate(60,10)"/>
<path d="M0 0 C2.475 0.99 2.475 0.99 5 2 C5 2.66 5 3.32 5 4 C0.05 4.66 -4.9 5.32 -10 6 C-10 5.01 -10 4.02 -10 3 C-7.98177083 3.03255208 -5.96354167 3.06510417 -3.9453125 3.09765625 C-1.91814596 3.12649242 -1.91814596 3.12649242 0 2 C0 1.34 0 0.68 0 0 Z " fill="#EBEAE7" transform="translate(30,64)"/>
<path d="M0 0 C6.66287016 1.92482916 6.66287016 1.92482916 9 5 C9.33 5.99 9.66 6.98 10 8 C10.66 8.33 11.32 8.66 12 9 C11.67 9.66 11.34 10.32 11 11 C9.72486237 9.92173635 8.45507431 8.83714481 7.1875 7.75 C6.47980469 7.14671875 5.77210937 6.5434375 5.04296875 5.921875 C3.08110329 4.07629602 1.54330375 2.20054668 0 0 Z " fill="#E3DDCB" transform="translate(31,44)"/>
<path d="M0 0 C1.10844919 3.32534757 0.84454356 5.62182575 0 9 C-2.97 9 -5.94 9 -9 9 C-9 8.34 -9 7.68 -9 7 C-6.03 7.495 -6.03 7.495 -3 8 C-2.690625 7.05125 -2.38125 6.1025 -2.0625 5.125 C-1 2 -1 2 0 0 Z " fill="#CCBE92" transform="translate(58,75)"/>
<path d="M0 0 C0.33 0 0.66 0 1 0 C1.31563182 5.26053037 0.66590937 8.44573816 -2 13 C-2.33 13 -2.66 13 -3 13 C-3.31563182 7.73946963 -2.66590937 4.55426184 0 0 Z " fill="#C5B278" transform="translate(14,10)"/>
<path d="M0 0 C0.33 0 0.66 0 1 0 C1.34615998 5.65394631 0.43425238 9.03006806 -2 14 C-2.97919756 10.92449216 -2.98561151 8.97555928 -2.125 5.875 C-1.94195312 5.19179688 -1.75890625 4.50859375 -1.5703125 3.8046875 C-1 2 -1 2 0 0 Z " fill="#C4B072" transform="translate(73,19)"/>
<path d="M0 0 C5.53846154 -0.36923077 5.53846154 -0.36923077 7.875 1.5 C8.24625 1.995 8.6175 2.49 9 3 C6.69 3 4.38 3 2 3 C1.34 4.65 0.68 6.3 0 8 C-0.98120464 4.94736336 -0.98120464 3.05263664 0 0 Z " fill="#E2DED0" transform="translate(18,0)"/>
<path d="M0 0 C9.59453303 0.59453303 9.59453303 0.59453303 13 4 C8.17639811 4.19294408 4.50353262 3.75747614 0 2 C0 1.34 0 0.68 0 0 Z " fill="#C5B276" transform="translate(44,6)"/>
<path d="M0 0 C5.23175837 -0.38281159 8.37802694 0.78145293 13 3 C13 3.33 13 3.66 13 4 C3.40546697 3.40546697 3.40546697 3.40546697 0 0 Z " fill="#C4B06F" transform="translate(15,74)"/>
<path d="M0 0 C2.96175123 0.61277612 4.38058783 1.25372522 7 3 C3.37 3.33 -0.26 3.66 -4 4 C-2.68 3.34 -1.36 2.68 0 2 C0 1.34 0 0.68 0 0 Z " fill="#C3AF6E" transform="translate(26,64)"/>
<path d="M0 0 C0 0.66 0 1.32 0 2 C-4.62 2 -9.24 2 -14 2 C-14.33 2.66 -14.66 3.32 -15 4 C-15 3.01 -15 2.02 -15 1 C-12.87630763 0.63807496 -10.7509887 0.28568253 -8.625 -0.0625 C-6.84996094 -0.35833984 -6.84996094 -0.35833984 -5.0390625 -0.66015625 C-2 -1 -2 -1 0 0 Z " fill="#ECEBE8" transform="translate(57,25)"/>
<path d="M0 0 C0.33 0 0.66 0 1 0 C1.36923077 6.4 1.36923077 6.4 -0.5 9.4375 C-0.995 9.953125 -1.49 10.46875 -2 11 C-1.85892253 9.54119891 -1.71197585 8.08296449 -1.5625 6.625 C-1.48128906 5.81289063 -1.40007812 5.00078125 -1.31640625 4.1640625 C-1 2 -1 2 0 0 Z " fill="#C4AF6F" transform="translate(4,46)"/>
<path d="M0 0 C0.33 0 0.66 0 1 0 C1.1953125 6.0546875 1.1953125 6.0546875 1 8 C0.34 8.66 -0.32 9.32 -1 10 C-2.23076923 4.58461538 -2.23076923 4.58461538 -1.0625 1.625 C-0.5365625 0.820625 -0.5365625 0.820625 0 0 Z " fill="#C5B480" transform="translate(10,24)"/>
<path d="M0 0 C0.99 0.33 1.98 0.66 3 1 C2.6875 2.9375 2.6875 2.9375 2 5 C1.01 5.33 0.02 5.66 -1 6 C-0.67 4.02 -0.34 2.04 0 0 Z " fill="#CEC091" transform="translate(63,56)"/>
</svg>
